<svg xmlns="http://www.w3.org/2000/svg" viewBox="0 0 592 388" width="592" height="388">
<g fill="black">
<rect x="18" y="0" width="558" height="1"/><rect x="18" y="1" width="558" height="1"/><rect x="18" y="2" width="558" height="1"/><rect x="18" y="3" width="558" height="1"/><rect x="18" y="4" width="558" height="1"/><rect x="18" y="5" width="558" height="1"/><rect x="18" y="6" width="558" height="1"/><rect x="18" y="7" width="558" height="1"/><rect x="18" y="8" width="558" height="1"/><rect x="18" y="9" width="558" height="1"/><rect x="18" y="10" width="558" height="1"/><rect x="18" y="11" width="558" height="1"/><rect x="16" y="12" width="560" height="1"/><rect x="16" y="13" width="560" height="1"/><rect x="2" y="14" width="590" height="1"/><rect x="2" y="15" width="590" height="1"/><rect x="2" y="16" width="590" height="1"/><rect x="2" y="17" width="590" height="1"/><rect x="2" y="18" width="590" height="1"/><rect x="2" y="19" width="590" height="1"/><rect x="2" y="20" width="590" height="1"/><rect x="2" y="21" width="590" height="1"/><rect x="2" y="22" width="590" height="1"/><rect x="2" y="23" width="590" height="1"/><rect x="2" y="24" width="590" height="1"/><rect x="2" y="25" width="590" height="1"/><rect x="2" y="26" width="50" height="1"/><rect x="67" y="26" width="1" height="1"/><rect x="69" y="26" width="7" height="1"/><rect x="80" y="26" width="2" height="1"/><rect x="86" y="26" width="10" height="1"/><rect x="218" y="26" width="1" height="1"/><rect x="224" y="26" width="2" height="1"/><rect x="334" y="26" width="1" height="1"/><rect x="336" y="26" width="16" height="1"/><rect x="355" y="26" width="1" height="1"/><rect x="544" y="26" width="48" height="1"/><rect x="2" y="27" width="50" height="1"/><rect x="68" y="27" width="8" height="1"/><rect x="80" y="27" width="1" height="1"/><rect x="86" y="27" width="10" height="1"/><rect x="223" y="27" width="3" height="1"/><rect x="336" y="27" width="4" height="1"/><rect x="341" y="27" width="11" height="1"/><rect x="353" y="27" width="1" height="1"/><rect x="355" y="27" width="1" height="1"/><rect x="544" y="27" width="48" height="1"/><rect x="2" y="28" width="48" height="1"/><rect x="544" y="28" width="48" height="1"/><rect x="2" y="29" width="48" height="1"/><rect x="544" y="29" width="48" height="1"/><rect x="2" y="30" width="48" height="1"/><rect x="544" y="30" width="48" height="1"/><rect x="2" y="31" width="48" height="1"/><rect x="544" y="31" width="48" height="1"/><rect x="2" y="32" width="48" height="1"/><rect x="544" y="32" width="48" height="1"/><rect x="2" y="33" width="48" height="1"/><rect x="544" y="33" width="48" height="1"/><rect x="2" y="34" width="62" height="1"/><rect x="530" y="34" width="62" height="1"/><rect x="2" y="35" width="62" height="1"/><rect x="530" y="35" width="62" height="1"/><rect x="2" y="36" width="62" height="1"/><rect x="530" y="36" width="62" height="1"/><rect x="2" y="37" width="62" height="1"/><rect x="530" y="37" width="62" height="1"/><rect x="2" y="38" width="62" height="1"/><rect x="530" y="38" width="62" height="1"/><rect x="2" y="39" width="62" height="1"/><rect x="530" y="39" width="62" height="1"/><rect x="0" y="40" width="1" height="1"/><rect x="2" y="40" width="62" height="1"/><rect x="530" y="40" width="62" height="1"/><rect x="2" y="41" width="62" height="1"/><rect x="530" y="41" width="62" height="1"/><rect x="2" y="42" width="62" height="1"/><rect x="530" y="42" width="62" height="1"/><rect x="2" y="43" width="62" height="1"/><rect x="530" y="43" width="62" height="1"/><rect x="0" y="44" width="64" height="1"/><rect x="528" y="44" width="64" height="1"/><rect x="0" y="45" width="64" height="1"/><rect x="528" y="45" width="64" height="1"/><rect x="0" y="46" width="1" height="1"/><rect x="2" y="46" width="84" height="1"/><rect x="508" y="46" width="84" height="1"/><rect x="2" y="47" width="84" height="1"/><rect x="508" y="47" width="84" height="1"/><rect x="2" y="48" width="84" height="1"/><rect x="506" y="48" width="86" height="1"/><rect x="2" y="49" width="84" height="1"/><rect x="506" y="49" width="86" height="1"/><rect x="2" y="50" width="84" height="1"/><rect x="506" y="50" width="86" height="1"/><rect x="2" y="51" width="84" height="1"/><rect x="506" y="51" width="86" height="1"/><rect x="2" y="52" width="84" height="1"/><rect x="506" y="52" width="86" height="1"/><rect x="2" y="53" width="84" height="1"/><rect x="506" y="53" width="86" height="1"/><rect x="2" y="54" width="84" height="1"/><rect x="506" y="54" width="48" height="1"/><rect x="560" y="54" width="32" height="1"/><rect x="2" y="55" width="84" height="1"/><rect x="506" y="55" width="48" height="1"/><rect x="555" y="55" width="1" height="1"/><rect x="560" y="55" width="32" height="1"/><rect x="2" y="56" width="30" height="1"/><rect x="56" y="56" width="30" height="1"/><rect x="506" y="56" width="32" height="1"/><rect x="562" y="56" width="30" height="1"/><rect x="2" y="57" width="30" height="1"/><rect x="56" y="57" width="30" height="1"/><rect x="506" y="57" width="32" height="1"/><rect x="562" y="57" width="30" height="1"/><rect x="2" y="58" width="30" height="1"/><rect x="56" y="58" width="30" height="1"/><rect x="506" y="58" width="32" height="1"/><rect x="562" y="58" width="30" height="1"/><rect x="2" y="59" width="30" height="1"/><rect x="56" y="59" width="30" height="1"/><rect x="506" y="59" width="32" height="1"/><rect x="562" y="59" width="30" height="1"/><rect x="2" y="60" width="30" height="1"/><rect x="56" y="60" width="58" height="1"/><rect x="480" y="60" width="58" height="1"/><rect x="562" y="60" width="30" height="1"/><rect x="2" y="61" width="30" height="1"/><rect x="56" y="61" width="58" height="1"/><rect x="480" y="61" width="58" height="1"/><rect x="562" y="61" width="30" height="1"/><rect x="2" y="62" width="30" height="1"/><rect x="56" y="62" width="58" height="1"/><rect x="480" y="62" width="58" height="1"/><rect x="562" y="62" width="30" height="1"/><rect x="2" y="63" width="30" height="1"/><rect x="56" y="63" width="58" height="1"/><rect x="480" y="63" width="58" height="1"/><rect x="562" y="63" width="30" height="1"/><rect x="2" y="64" width="30" height="1"/><rect x="56" y="64" width="58" height="1"/><rect x="480" y="64" width="58" height="1"/><rect x="562" y="64" width="30" height="1"/><rect x="2" y="65" width="30" height="1"/><rect x="56" y="65" width="58" height="1"/><rect x="480" y="65" width="58" height="1"/><rect x="562" y="65" width="30" height="1"/><rect x="2" y="66" width="30" height="1"/><rect x="56" y="66" width="58" height="1"/><rect x="480" y="66" width="58" height="1"/><rect x="562" y="66" width="30" height="1"/><rect x="2" y="67" width="30" height="1"/><rect x="56" y="67" width="58" height="1"/><rect x="480" y="67" width="58" height="1"/><rect x="562" y="67" width="30" height="1"/><rect x="2" y="68" width="30" height="1"/><rect x="56" y="68" width="58" height="1"/><rect x="480" y="68" width="58" height="1"/><rect x="562" y="68" width="30" height="1"/><rect x="2" y="69" width="30" height="1"/><rect x="56" y="69" width="58" height="1"/><rect x="480" y="69" width="58" height="1"/><rect x="562" y="69" width="30" height="1"/><rect x="2" y="70" width="30" height="1"/><rect x="56" y="70" width="58" height="1"/><rect x="480" y="70" width="58" height="1"/><rect x="562" y="70" width="30" height="1"/><rect x="2" y="71" width="30" height="1"/><rect x="56" y="71" width="58" height="1"/><rect x="480" y="71" width="58" height="1"/><rect x="562" y="71" width="30" height="1"/><rect x="2" y="72" width="30" height="1"/><rect x="82" y="72" width="32" height="1"/><rect x="480" y="72" width="30" height="1"/><rect x="562" y="72" width="30" height="1"/><rect x="2" y="73" width="30" height="1"/><rect x="82" y="73" width="32" height="1"/><rect x="480" y="73" width="30" height="1"/><rect x="562" y="73" width="30" height="1"/><rect x="2" y="74" width="30" height="1"/><rect x="82" y="74" width="59" height="1"/><rect x="452" y="74" width="58" height="1"/><rect x="562" y="74" width="30" height="1"/><rect x="2" y="75" width="30" height="1"/><rect x="82" y="75" width="58" height="1"/><rect x="452" y="75" width="58" height="1"/><rect x="562" y="75" width="30" height="1"/><rect x="1" y="76" width="31" height="1"/><rect x="82" y="76" width="60" height="1"/><rect x="452" y="76" width="58" height="1"/><rect x="562" y="76" width="30" height="1"/><rect x="2" y="77" width="30" height="1"/><rect x="82" y="77" width="60" height="1"/><rect x="452" y="77" width="58" height="1"/><rect x="562" y="77" width="30" height="1"/><rect x="0" y="78" width="32" height="1"/><rect x="82" y="78" width="60" height="1"/><rect x="452" y="78" width="58" height="1"/><rect x="562" y="78" width="30" height="1"/><rect x="0" y="79" width="32" height="1"/><rect x="82" y="79" width="60" height="1"/><rect x="452" y="79" width="58" height="1"/><rect x="562" y="79" width="30" height="1"/><rect x="1" y="80" width="31" height="1"/><rect x="82" y="80" width="60" height="1"/><rect x="452" y="80" width="58" height="1"/><rect x="562" y="80" width="30" height="1"/><rect x="1" y="81" width="31" height="1"/><rect x="82" y="81" width="60" height="1"/><rect x="452" y="81" width="58" height="1"/><rect x="562" y="81" width="30" height="1"/><rect x="2" y="82" width="30" height="1"/><rect x="82" y="82" width="60" height="1"/><rect x="452" y="82" width="58" height="1"/><rect x="562" y="82" width="30" height="1"/><rect x="2" y="83" width="30" height="1"/><rect x="82" y="83" width="60" height="1"/><rect x="452" y="83" width="58" height="1"/><rect x="562" y="83" width="30" height="1"/><rect x="2" y="84" width="30" height="1"/><rect x="82" y="84" width="60" height="1"/><rect x="452" y="84" width="60" height="1"/><rect x="562" y="84" width="30" height="1"/><rect x="2" y="85" width="30" height="1"/><rect x="82" y="85" width="60" height="1"/><rect x="452" y="85" width="60" height="1"/><rect x="562" y="85" width="30" height="1"/><rect x="1" y="86" width="31" height="1"/><rect x="110" y="86" width="32" height="1"/><rect x="452" y="86" width="58" height="1"/><rect x="562" y="86" width="30" height="1"/><rect x="1" y="87" width="31" height="1"/><rect x="110" y="87" width="32" height="1"/><rect x="452" y="87" width="58" height="1"/><rect x="562" y="87" width="30" height="1"/><rect x="1" y="88" width="31" height="1"/><rect x="110" y="88" width="32" height="1"/><rect x="452" y="88" width="32" height="1"/><rect x="562" y="88" width="30" height="1"/><rect x="0" y="89" width="32" height="1"/><rect x="110" y="89" width="32" height="1"/><rect x="452" y="89" width="32" height="1"/><rect x="562" y="89" width="30" height="1"/><rect x="0" y="90" width="32" height="1"/><rect x="110" y="90" width="62" height="1"/><rect x="424" y="90" width="60" height="1"/><rect x="562" y="90" width="30" height="1"/><rect x="0" y="91" width="32" height="1"/><rect x="110" y="91" width="62" height="1"/><rect x="424" y="91" width="60" height="1"/><rect x="562" y="91" width="30" height="1"/><rect x="0" y="92" width="32" height="1"/><rect x="110" y="92" width="62" height="1"/><rect x="424" y="92" width="60" height="1"/><rect x="562" y="92" width="30" height="1"/><rect x="0" y="93" width="32" height="1"/><rect x="110" y="93" width="62" height="1"/><rect x="424" y="93" width="60" height="1"/><rect x="562" y="93" width="30" height="1"/><rect x="0" y="94" width="32" height="1"/><rect x="110" y="94" width="62" height="1"/><rect x="424" y="94" width="60" height="1"/><rect x="562" y="94" width="30" height="1"/><rect x="0" y="95" width="32" height="1"/><rect x="110" y="95" width="62" height="1"/><rect x="424" y="95" width="60" height="1"/><rect x="562" y="95" width="30" height="1"/><rect x="0" y="96" width="32" height="1"/><rect x="110" y="96" width="62" height="1"/><rect x="424" y="96" width="60" height="1"/><rect x="562" y="96" width="30" height="1"/><rect x="0" y="97" width="32" height="1"/><rect x="110" y="97" width="62" height="1"/><rect x="424" y="97" width="60" height="1"/><rect x="562" y="97" width="30" height="1"/><rect x="0" y="98" width="32" height="1"/><rect x="110" y="98" width="62" height="1"/><rect x="424" y="98" width="60" height="1"/><rect x="562" y="98" width="30" height="1"/><rect x="0" y="99" width="32" height="1"/><rect x="110" y="99" width="62" height="1"/><rect x="424" y="99" width="60" height="1"/><rect x="562" y="99" width="30" height="1"/><rect x="0" y="100" width="32" height="1"/><rect x="110" y="100" width="62" height="1"/><rect x="424" y="100" width="60" height="1"/><rect x="562" y="100" width="30" height="1"/><rect x="0" y="101" width="32" height="1"/><rect x="110" y="101" width="62" height="1"/><rect x="424" y="101" width="60" height="1"/><rect x="562" y="101" width="30" height="1"/><rect x="0" y="102" width="32" height="1"/><rect x="138" y="102" width="34" height="1"/><rect x="424" y="102" width="32" height="1"/><rect x="562" y="102" width="30" height="1"/><rect x="0" y="103" width="32" height="1"/><rect x="138" y="103" width="34" height="1"/><rect x="424" y="103" width="32" height="1"/><rect x="562" y="103" width="30" height="1"/><rect x="0" y="104" width="32" height="1"/><rect x="138" y="104" width="34" height="1"/><rect x="396" y="104" width="60" height="1"/><rect x="562" y="104" width="30" height="1"/><rect x="0" y="105" width="32" height="1"/><rect x="138" y="105" width="34" height="1"/><rect x="396" y="105" width="60" height="1"/><rect x="562" y="105" width="30" height="1"/><rect x="0" y="106" width="32" height="1"/><rect x="138" y="106" width="62" height="1"/><rect x="396" y="106" width="60" height="1"/><rect x="562" y="106" width="30" height="1"/><rect x="0" y="107" width="32" height="1"/><rect x="138" y="107" width="62" height="1"/><rect x="396" y="107" width="60" height="1"/><rect x="562" y="107" width="30" height="1"/><rect x="0" y="108" width="32" height="1"/><rect x="138" y="108" width="62" height="1"/><rect x="396" y="108" width="60" height="1"/><rect x="562" y="108" width="30" height="1"/><rect x="0" y="109" width="32" height="1"/><rect x="138" y="109" width="62" height="1"/><rect x="396" y="109" width="60" height="1"/><rect x="562" y="109" width="30" height="1"/><rect x="0" y="110" width="32" height="1"/><rect x="138" y="110" width="62" height="1"/><rect x="396" y="110" width="60" height="1"/><rect x="562" y="110" width="30" height="1"/><rect x="0" y="111" width="32" height="1"/><rect x="138" y="111" width="62" height="1"/><rect x="396" y="111" width="60" height="1"/><rect x="562" y="111" width="30" height="1"/><rect x="0" y="112" width="32" height="1"/><rect x="138" y="112" width="62" height="1"/><rect x="396" y="112" width="60" height="1"/><rect x="562" y="112" width="30" height="1"/><rect x="0" y="113" width="32" height="1"/><rect x="138" y="113" width="62" height="1"/><rect x="396" y="113" width="60" height="1"/><rect x="562" y="113" width="30" height="1"/><rect x="0" y="114" width="32" height="1"/><rect x="138" y="114" width="62" height="1"/><rect x="396" y="114" width="60" height="1"/><rect x="562" y="114" width="30" height="1"/><rect x="0" y="115" width="32" height="1"/><rect x="138" y="115" width="62" height="1"/><rect x="396" y="115" width="60" height="1"/><rect x="562" y="115" width="30" height="1"/><rect x="0" y="116" width="32" height="1"/><rect x="138" y="116" width="62" height="1"/><rect x="396" y="116" width="60" height="1"/><rect x="562" y="116" width="30" height="1"/><rect x="0" y="117" width="32" height="1"/><rect x="138" y="117" width="62" height="1"/><rect x="396" y="117" width="60" height="1"/><rect x="562" y="117" width="30" height="1"/><rect x="0" y="118" width="32" height="1"/><rect x="168" y="118" width="32" height="1"/><rect x="396" y="118" width="32" height="1"/><rect x="562" y="118" width="30" height="1"/><rect x="0" y="119" width="32" height="1"/><rect x="168" y="119" width="32" height="1"/><rect x="396" y="119" width="32" height="1"/><rect x="562" y="119" width="30" height="1"/><rect x="0" y="120" width="32" height="1"/><rect x="168" y="120" width="62" height="1"/><rect x="366" y="120" width="62" height="1"/><rect x="562" y="120" width="30" height="1"/><rect x="0" y="121" width="32" height="1"/><rect x="168" y="121" width="60" height="1"/><rect x="229" y="121" width="1" height="1"/><rect x="366" y="121" width="62" height="1"/><rect x="562" y="121" width="30" height="1"/><rect x="0" y="122" width="32" height="1"/><rect x="168" y="122" width="62" height="1"/><rect x="366" y="122" width="62" height="1"/><rect x="562" y="122" width="30" height="1"/><rect x="0" y="123" width="32" height="1"/><rect x="168" y="123" width="62" height="1"/><rect x="366" y="123" width="62" height="1"/><rect x="562" y="123" width="30" height="1"/><rect x="0" y="124" width="32" height="1"/><rect x="168" y="124" width="62" height="1"/><rect x="366" y="124" width="62" height="1"/><rect x="562" y="124" width="30" height="1"/><rect x="0" y="125" width="32" height="1"/><rect x="168" y="125" width="62" height="1"/><rect x="366" y="125" width="62" height="1"/><rect x="562" y="125" width="30" height="1"/><rect x="0" y="126" width="32" height="1"/><rect x="168" y="126" width="62" height="1"/><rect x="366" y="126" width="62" height="1"/><rect x="562" y="126" width="30" height="1"/><rect x="0" y="127" width="32" height="1"/><rect x="168" y="127" width="62" height="1"/><rect x="366" y="127" width="62" height="1"/><rect x="562" y="127" width="30" height="1"/><rect x="0" y="128" width="32" height="1"/><rect x="168" y="128" width="62" height="1"/><rect x="366" y="128" width="62" height="1"/><rect x="562" y="128" width="30" height="1"/><rect x="0" y="129" width="32" height="1"/><rect x="168" y="129" width="62" height="1"/><rect x="366" y="129" width="62" height="1"/><rect x="562" y="129" width="30" height="1"/><rect x="0" y="130" width="32" height="1"/><rect x="168" y="130" width="62" height="1"/><rect x="366" y="130" width="62" height="1"/><rect x="562" y="130" width="30" height="1"/><rect x="0" y="131" width="32" height="1"/><rect x="168" y="131" width="62" height="1"/><rect x="366" y="131" width="62" height="1"/><rect x="562" y="131" width="30" height="1"/><rect x="0" y="132" width="32" height="1"/><rect x="168" y="132" width="62" height="1"/><rect x="366" y="132" width="62" height="1"/><rect x="562" y="132" width="30" height="1"/><rect x="0" y="133" width="32" height="1"/><rect x="168" y="133" width="62" height="1"/><rect x="366" y="133" width="62" height="1"/><rect x="562" y="133" width="30" height="1"/><rect x="0" y="134" width="32" height="1"/><rect x="196" y="134" width="34" height="1"/><rect x="364" y="134" width="34" height="1"/><rect x="562" y="134" width="30" height="1"/><rect x="0" y="135" width="32" height="1"/><rect x="196" y="135" width="34" height="1"/><rect x="364" y="135" width="34" height="1"/><rect x="562" y="135" width="30" height="1"/><rect x="2" y="136" width="30" height="1"/><rect x="196" y="136" width="60" height="1"/><rect x="338" y="136" width="60" height="1"/><rect x="562" y="136" width="30" height="1"/><rect x="2" y="137" width="30" height="1"/><rect x="196" y="137" width="60" height="1"/><rect x="338" y="137" width="60" height="1"/><rect x="562" y="137" width="30" height="1"/><rect x="2" y="138" width="30" height="1"/><rect x="196" y="138" width="60" height="1"/><rect x="338" y="138" width="60" height="1"/><rect x="562" y="138" width="30" height="1"/><rect x="2" y="139" width="30" height="1"/><rect x="196" y="139" width="60" height="1"/><rect x="338" y="139" width="60" height="1"/><rect x="562" y="139" width="30" height="1"/><rect x="2" y="140" width="30" height="1"/><rect x="196" y="140" width="60" height="1"/><rect x="338" y="140" width="60" height="1"/><rect x="562" y="140" width="30" height="1"/><rect x="2" y="141" width="30" height="1"/><rect x="196" y="141" width="60" height="1"/><rect x="338" y="141" width="60" height="1"/><rect x="562" y="141" width="30" height="1"/><rect x="2" y="142" width="30" height="1"/><rect x="196" y="142" width="60" height="1"/><rect x="338" y="142" width="60" height="1"/><rect x="562" y="142" width="30" height="1"/><rect x="2" y="143" width="30" height="1"/><rect x="196" y="143" width="60" height="1"/><rect x="338" y="143" width="60" height="1"/><rect x="562" y="143" width="30" height="1"/><rect x="2" y="144" width="30" height="1"/><rect x="196" y="144" width="60" height="1"/><rect x="338" y="144" width="60" height="1"/><rect x="562" y="144" width="30" height="1"/><rect x="2" y="145" width="30" height="1"/><rect x="196" y="145" width="60" height="1"/><rect x="338" y="145" width="60" height="1"/><rect x="562" y="145" width="30" height="1"/><rect x="2" y="146" width="30" height="1"/><rect x="197" y="146" width="59" height="1"/><rect x="338" y="146" width="60" height="1"/><rect x="562" y="146" width="30" height="1"/><rect x="2" y="147" width="30" height="1"/><rect x="196" y="147" width="1" height="1"/><rect x="198" y="147" width="58" height="1"/><rect x="338" y="147" width="60" height="1"/><rect x="562" y="147" width="30" height="1"/><rect x="2" y="148" width="30" height="1"/><rect x="198" y="148" width="58" height="1"/><rect x="338" y="148" width="60" height="1"/><rect x="562" y="148" width="30" height="1"/><rect x="2" y="149" width="30" height="1"/><rect x="198" y="149" width="58" height="1"/><rect x="338" y="149" width="60" height="1"/><rect x="562" y="149" width="30" height="1"/><rect x="2" y="150" width="30" height="1"/><rect x="226" y="150" width="144" height="1"/><rect x="562" y="150" width="30" height="1"/><rect x="2" y="151" width="30" height="1"/><rect x="226" y="151" width="144" height="1"/><rect x="562" y="151" width="30" height="1"/><rect x="2" y="152" width="30" height="1"/><rect x="226" y="152" width="144" height="1"/><rect x="562" y="152" width="30" height="1"/><rect x="2" y="153" width="30" height="1"/><rect x="226" y="153" width="144" height="1"/><rect x="562" y="153" width="30" height="1"/><rect x="2" y="154" width="30" height="1"/><rect x="226" y="154" width="144" height="1"/><rect x="562" y="154" width="30" height="1"/><rect x="2" y="155" width="30" height="1"/><rect x="226" y="155" width="144" height="1"/><rect x="562" y="155" width="30" height="1"/><rect x="2" y="156" width="30" height="1"/><rect x="226" y="156" width="144" height="1"/><rect x="562" y="156" width="30" height="1"/><rect x="2" y="157" width="30" height="1"/><rect x="226" y="157" width="144" height="1"/><rect x="562" y="157" width="30" height="1"/><rect x="2" y="158" width="30" height="1"/><rect x="226" y="158" width="144" height="1"/><rect x="562" y="158" width="30" height="1"/><rect x="2" y="159" width="30" height="1"/><rect x="226" y="159" width="144" height="1"/><rect x="562" y="159" width="30" height="1"/><rect x="2" y="160" width="30" height="1"/><rect x="226" y="160" width="144" height="1"/><rect x="562" y="160" width="30" height="1"/><rect x="2" y="161" width="30" height="1"/><rect x="226" y="161" width="144" height="1"/><rect x="562" y="161" width="30" height="1"/><rect x="2" y="162" width="30" height="1"/><rect x="226" y="162" width="144" height="1"/><rect x="562" y="162" width="30" height="1"/><rect x="2" y="163" width="30" height="1"/><rect x="226" y="163" width="144" height="1"/><rect x="562" y="163" width="30" height="1"/><rect x="2" y="164" width="30" height="1"/><rect x="228" y="164" width="18" height="1"/><rect x="248" y="164" width="2" height="1"/><rect x="252" y="164" width="90" height="1"/><rect x="562" y="164" width="30" height="1"/><rect x="2" y="165" width="30" height="1"/><rect x="228" y="165" width="18" height="1"/><rect x="248" y="165" width="2" height="1"/><rect x="252" y="165" width="90" height="1"/><rect x="562" y="165" width="30" height="1"/><rect x="2" y="166" width="30" height="1"/><rect x="252" y="166" width="90" height="1"/><rect x="562" y="166" width="30" height="1"/><rect x="2" y="167" width="30" height="1"/><rect x="252" y="167" width="90" height="1"/><rect x="562" y="167" width="30" height="1"/><rect x="2" y="168" width="30" height="1"/><rect x="252" y="168" width="90" height="1"/><rect x="562" y="168" width="30" height="1"/><rect x="2" y="169" width="30" height="1"/><rect x="252" y="169" width="90" height="1"/><rect x="562" y="169" width="30" height="1"/><rect x="2" y="170" width="30" height="1"/><rect x="252" y="170" width="90" height="1"/><rect x="562" y="170" width="30" height="1"/><rect x="2" y="171" width="30" height="1"/><rect x="252" y="171" width="90" height="1"/><rect x="562" y="171" width="30" height="1"/><rect x="2" y="172" width="30" height="1"/><rect x="252" y="172" width="90" height="1"/><rect x="562" y="172" width="30" height="1"/><rect x="2" y="173" width="30" height="1"/><rect x="252" y="173" width="90" height="1"/><rect x="562" y="173" width="30" height="1"/><rect x="2" y="174" width="30" height="1"/><rect x="252" y="174" width="90" height="1"/><rect x="562" y="174" width="30" height="1"/><rect x="2" y="175" width="30" height="1"/><rect x="252" y="175" width="90" height="1"/><rect x="562" y="175" width="30" height="1"/><rect x="2" y="176" width="30" height="1"/><rect x="252" y="176" width="90" height="1"/><rect x="562" y="176" width="30" height="1"/><rect x="2" y="177" width="30" height="1"/><rect x="252" y="177" width="90" height="1"/><rect x="562" y="177" width="30" height="1"/><rect x="2" y="178" width="30" height="1"/><rect x="252" y="178" width="90" height="1"/><rect x="562" y="178" width="30" height="1"/><rect x="2" y="179" width="30" height="1"/><rect x="252" y="179" width="90" height="1"/><rect x="562" y="179" width="30" height="1"/><rect x="2" y="180" width="30" height="1"/><rect x="562" y="180" width="30" height="1"/><rect x="2" y="181" width="30" height="1"/><rect x="562" y="181" width="30" height="1"/><rect x="2" y="182" width="30" height="1"/><rect x="562" y="182" width="30" height="1"/><rect x="2" y="183" width="30" height="1"/><rect x="562" y="183" width="30" height="1"/><rect x="2" y="184" width="30" height="1"/><rect x="562" y="184" width="30" height="1"/><rect x="2" y="185" width="30" height="1"/><rect x="562" y="185" width="30" height="1"/><rect x="2" y="186" width="30" height="1"/><rect x="562" y="186" width="30" height="1"/><rect x="2" y="187" width="30" height="1"/><rect x="562" y="187" width="30" height="1"/><rect x="2" y="188" width="30" height="1"/><rect x="562" y="188" width="30" height="1"/><rect x="2" y="189" width="30" height="1"/><rect x="562" y="189" width="30" height="1"/><rect x="2" y="190" width="30" height="1"/><rect x="562" y="190" width="30" height="1"/><rect x="2" y="191" width="30" height="1"/><rect x="562" y="191" width="30" height="1"/><rect x="1" y="192" width="31" height="1"/><rect x="562" y="192" width="30" height="1"/><rect x="2" y="193" width="30" height="1"/><rect x="562" y="193" width="30" height="1"/><rect x="1" y="194" width="31" height="1"/><rect x="562" y="194" width="30" height="1"/><rect x="0" y="195" width="32" height="1"/><rect x="562" y="195" width="30" height="1"/><rect x="0" y="196" width="32" height="1"/><rect x="562" y="196" width="30" height="1"/><rect x="0" y="197" width="32" height="1"/><rect x="562" y="197" width="30" height="1"/><rect x="0" y="198" width="32" height="1"/><rect x="562" y="198" width="30" height="1"/><rect x="0" y="199" width="32" height="1"/><rect x="562" y="199" width="30" height="1"/><rect x="0" y="200" width="32" height="1"/><rect x="562" y="200" width="30" height="1"/><rect x="0" y="201" width="32" height="1"/><rect x="562" y="201" width="30" height="1"/><rect x="0" y="202" width="32" height="1"/><rect x="562" y="202" width="30" height="1"/><rect x="0" y="203" width="32" height="1"/><rect x="562" y="203" width="30" height="1"/><rect x="0" y="204" width="32" height="1"/><rect x="562" y="204" width="30" height="1"/><rect x="0" y="205" width="32" height="1"/><rect x="562" y="205" width="30" height="1"/><rect x="0" y="206" width="32" height="1"/><rect x="562" y="206" width="30" height="1"/><rect x="0" y="207" width="32" height="1"/><rect x="562" y="207" width="30" height="1"/><rect x="0" y="208" width="32" height="1"/><rect x="562" y="208" width="30" height="1"/><rect x="0" y="209" width="32" height="1"/><rect x="562" y="209" width="30" height="1"/><rect x="0" y="210" width="32" height="1"/><rect x="562" y="210" width="30" height="1"/><rect x="0" y="211" width="32" height="1"/><rect x="562" y="211" width="30" height="1"/><rect x="0" y="212" width="32" height="1"/><rect x="562" y="212" width="30" height="1"/><rect x="0" y="213" width="32" height="1"/><rect x="562" y="213" width="30" height="1"/><rect x="0" y="214" width="32" height="1"/><rect x="562" y="214" width="30" height="1"/><rect x="0" y="215" width="32" height="1"/><rect x="562" y="215" width="30" height="1"/><rect x="0" y="216" width="32" height="1"/><rect x="562" y="216" width="30" height="1"/><rect x="0" y="217" width="32" height="1"/><rect x="562" y="217" width="30" height="1"/><rect x="0" y="218" width="32" height="1"/><rect x="562" y="218" width="30" height="1"/><rect x="0" y="219" width="32" height="1"/><rect x="562" y="219" width="30" height="1"/><rect x="0" y="220" width="32" height="1"/><rect x="562" y="220" width="30" height="1"/><rect x="0" y="221" width="32" height="1"/><rect x="562" y="221" width="30" height="1"/><rect x="0" y="222" width="32" height="1"/><rect x="562" y="222" width="30" height="1"/><rect x="0" y="223" width="32" height="1"/><rect x="562" y="223" width="30" height="1"/><rect x="0" y="224" width="32" height="1"/><rect x="562" y="224" width="30" height="1"/><rect x="0" y="225" width="32" height="1"/><rect x="562" y="225" width="30" height="1"/><rect x="0" y="226" width="32" height="1"/><rect x="562" y="226" width="30" height="1"/><rect x="0" y="227" width="32" height="1"/><rect x="562" y="227" width="30" height="1"/><rect x="0" y="228" width="32" height="1"/><rect x="562" y="228" width="30" height="1"/><rect x="0" y="229" width="32" height="1"/><rect x="562" y="229" width="30" height="1"/><rect x="0" y="230" width="32" height="1"/><rect x="562" y="230" width="30" height="1"/><rect x="0" y="231" width="32" height="1"/><rect x="562" y="231" width="30" height="1"/><rect x="0" y="232" width="32" height="1"/><rect x="562" y="232" width="30" height="1"/><rect x="0" y="233" width="32" height="1"/><rect x="562" y="233" width="30" height="1"/><rect x="0" y="234" width="32" height="1"/><rect x="562" y="234" width="30" height="1"/><rect x="0" y="235" width="32" height="1"/><rect x="562" y="235" width="30" height="1"/><rect x="0" y="236" width="32" height="1"/><rect x="562" y="236" width="30" height="1"/><rect x="0" y="237" width="32" height="1"/><rect x="562" y="237" width="30" height="1"/><rect x="0" y="238" width="32" height="1"/><rect x="562" y="238" width="30" height="1"/><rect x="0" y="239" width="32" height="1"/><rect x="562" y="239" width="30" height="1"/><rect x="0" y="240" width="32" height="1"/><rect x="562" y="240" width="30" height="1"/><rect x="0" y="241" width="32" height="1"/><rect x="562" y="241" width="30" height="1"/><rect x="0" y="242" width="32" height="1"/><rect x="562" y="242" width="30" height="1"/><rect x="0" y="243" width="32" height="1"/><rect x="562" y="243" width="30" height="1"/><rect x="0" y="244" width="32" height="1"/><rect x="562" y="244" width="30" height="1"/><rect x="0" y="245" width="32" height="1"/><rect x="562" y="245" width="30" height="1"/><rect x="0" y="246" width="32" height="1"/><rect x="562" y="246" width="30" height="1"/><rect x="0" y="247" width="32" height="1"/><rect x="562" y="247" width="30" height="1"/><rect x="0" y="248" width="32" height="1"/><rect x="562" y="248" width="30" height="1"/><rect x="0" y="249" width="32" height="1"/><rect x="562" y="249" width="30" height="1"/><rect x="0" y="250" width="32" height="1"/><rect x="562" y="250" width="30" height="1"/><rect x="0" y="251" width="32" height="1"/><rect x="562" y="251" width="30" height="1"/><rect x="0" y="252" width="32" height="1"/><rect x="562" y="252" width="30" height="1"/><rect x="0" y="253" width="32" height="1"/><rect x="562" y="253" width="30" height="1"/><rect x="0" y="254" width="32" height="1"/><rect x="562" y="254" width="30" height="1"/><rect x="0" y="255" width="32" height="1"/><rect x="562" y="255" width="30" height="1"/><rect x="0" y="256" width="32" height="1"/><rect x="562" y="256" width="30" height="1"/><rect x="0" y="257" width="32" height="1"/><rect x="562" y="257" width="30" height="1"/><rect x="0" y="258" width="32" height="1"/><rect x="562" y="258" width="30" height="1"/><rect x="0" y="259" width="32" height="1"/><rect x="562" y="259" width="30" height="1"/><rect x="0" y="260" width="32" height="1"/><rect x="562" y="260" width="30" height="1"/><rect x="0" y="261" width="32" height="1"/><rect x="562" y="261" width="30" height="1"/><rect x="0" y="262" width="32" height="1"/><rect x="562" y="262" width="30" height="1"/><rect x="0" y="263" width="32" height="1"/><rect x="562" y="263" width="30" height="1"/><rect x="0" y="264" width="32" height="1"/><rect x="562" y="264" width="30" height="1"/><rect x="0" y="265" width="32" height="1"/><rect x="562" y="265" width="30" height="1"/><rect x="0" y="266" width="32" height="1"/><rect x="562" y="266" width="30" height="1"/><rect x="0" y="267" width="32" height="1"/><rect x="562" y="267" width="30" height="1"/><rect x="0" y="268" width="32" height="1"/><rect x="562" y="268" width="30" height="1"/><rect x="0" y="269" width="32" height="1"/><rect x="562" y="269" width="30" height="1"/><rect x="0" y="270" width="32" height="1"/><rect x="562" y="270" width="30" height="1"/><rect x="0" y="271" width="32" height="1"/><rect x="562" y="271" width="30" height="1"/><rect x="0" y="272" width="32" height="1"/><rect x="562" y="272" width="30" height="1"/><rect x="0" y="273" width="32" height="1"/><rect x="562" y="273" width="30" height="1"/><rect x="0" y="274" width="32" height="1"/><rect x="562" y="274" width="30" height="1"/><rect x="0" y="275" width="32" height="1"/><rect x="562" y="275" width="30" height="1"/><rect x="0" y="276" width="32" height="1"/><rect x="562" y="276" width="30" height="1"/><rect x="0" y="277" width="32" height="1"/><rect x="562" y="277" width="30" height="1"/><rect x="0" y="278" width="32" height="1"/><rect x="562" y="278" width="30" height="1"/><rect x="0" y="279" width="32" height="1"/><rect x="562" y="279" width="30" height="1"/><rect x="0" y="280" width="32" height="1"/><rect x="562" y="280" width="30" height="1"/><rect x="0" y="281" width="32" height="1"/><rect x="562" y="281" width="30" height="1"/><rect x="0" y="282" width="32" height="1"/><rect x="562" y="282" width="30" height="1"/><rect x="0" y="283" width="32" height="1"/><rect x="562" y="283" width="30" height="1"/><rect x="0" y="284" width="32" height="1"/><rect x="562" y="284" width="30" height="1"/><rect x="0" y="285" width="32" height="1"/><rect x="562" y="285" width="30" height="1"/><rect x="0" y="286" width="32" height="1"/><rect x="562" y="286" width="30" height="1"/><rect x="0" y="287" width="32" height="1"/><rect x="562" y="287" width="30" height="1"/><rect x="0" y="288" width="32" height="1"/><rect x="562" y="288" width="30" height="1"/><rect x="0" y="289" width="32" height="1"/><rect x="562" y="289" width="30" height="1"/><rect x="0" y="290" width="32" height="1"/><rect x="562" y="290" width="30" height="1"/><rect x="0" y="291" width="32" height="1"/><rect x="562" y="291" width="30" height="1"/><rect x="0" y="292" width="32" height="1"/><rect x="562" y="292" width="30" height="1"/><rect x="0" y="293" width="32" height="1"/><rect x="562" y="293" width="30" height="1"/><rect x="0" y="294" width="32" height="1"/><rect x="562" y="294" width="30" height="1"/><rect x="0" y="295" width="32" height="1"/><rect x="562" y="295" width="30" height="1"/><rect x="0" y="296" width="32" height="1"/><rect x="562" y="296" width="30" height="1"/><rect x="0" y="297" width="32" height="1"/><rect x="562" y="297" width="30" height="1"/><rect x="0" y="298" width="32" height="1"/><rect x="562" y="298" width="30" height="1"/><rect x="0" y="299" width="32" height="1"/><rect x="562" y="299" width="30" height="1"/><rect x="0" y="300" width="32" height="1"/><rect x="562" y="300" width="30" height="1"/><rect x="0" y="301" width="32" height="1"/><rect x="562" y="301" width="30" height="1"/><rect x="0" y="302" width="32" height="1"/><rect x="562" y="302" width="30" height="1"/><rect x="0" y="303" width="32" height="1"/><rect x="562" y="303" width="30" height="1"/><rect x="0" y="304" width="32" height="1"/><rect x="562" y="304" width="30" height="1"/><rect x="0" y="305" width="32" height="1"/><rect x="562" y="305" width="30" height="1"/><rect x="0" y="306" width="32" height="1"/><rect x="562" y="306" width="30" height="1"/><rect x="0" y="307" width="32" height="1"/><rect x="562" y="307" width="30" height="1"/><rect x="0" y="308" width="32" height="1"/><rect x="562" y="308" width="30" height="1"/><rect x="0" y="309" width="32" height="1"/><rect x="562" y="309" width="30" height="1"/><rect x="0" y="310" width="32" height="1"/><rect x="562" y="310" width="30" height="1"/><rect x="0" y="311" width="32" height="1"/><rect x="562" y="311" width="30" height="1"/><rect x="0" y="312" width="32" height="1"/><rect x="562" y="312" width="30" height="1"/><rect x="0" y="313" width="32" height="1"/><rect x="562" y="313" width="30" height="1"/><rect x="0" y="314" width="32" height="1"/><rect x="562" y="314" width="30" height="1"/><rect x="0" y="315" width="32" height="1"/><rect x="562" y="315" width="30" height="1"/><rect x="0" y="316" width="32" height="1"/><rect x="562" y="316" width="30" height="1"/><rect x="0" y="317" width="32" height="1"/><rect x="562" y="317" width="30" height="1"/><rect x="0" y="318" width="32" height="1"/><rect x="562" y="318" width="30" height="1"/><rect x="0" y="319" width="32" height="1"/><rect x="562" y="319" width="30" height="1"/><rect x="0" y="320" width="32" height="1"/><rect x="562" y="320" width="30" height="1"/><rect x="0" y="321" width="32" height="1"/><rect x="562" y="321" width="30" height="1"/><rect x="0" y="322" width="32" height="1"/><rect x="562" y="322" width="30" height="1"/><rect x="0" y="323" width="32" height="1"/><rect x="562" y="323" width="30" height="1"/><rect x="0" y="324" width="32" height="1"/><rect x="562" y="324" width="30" height="1"/><rect x="0" y="325" width="32" height="1"/><rect x="562" y="325" width="30" height="1"/><rect x="0" y="326" width="32" height="1"/><rect x="562" y="326" width="30" height="1"/><rect x="0" y="327" width="32" height="1"/><rect x="562" y="327" width="30" height="1"/><rect x="0" y="328" width="32" height="1"/><rect x="562" y="328" width="30" height="1"/><rect x="0" y="329" width="32" height="1"/><rect x="562" y="329" width="30" height="1"/><rect x="0" y="330" width="32" height="1"/><rect x="562" y="330" width="30" height="1"/><rect x="0" y="331" width="32" height="1"/><rect x="562" y="331" width="30" height="1"/><rect x="0" y="332" width="32" height="1"/><rect x="562" y="332" width="30" height="1"/><rect x="0" y="333" width="32" height="1"/><rect x="562" y="333" width="30" height="1"/><rect x="0" y="334" width="32" height="1"/><rect x="562" y="334" width="30" height="1"/><rect x="0" y="335" width="32" height="1"/><rect x="562" y="335" width="30" height="1"/><rect x="0" y="336" width="32" height="1"/><rect x="562" y="336" width="30" height="1"/><rect x="0" y="337" width="32" height="1"/><rect x="562" y="337" width="30" height="1"/><rect x="0" y="338" width="32" height="1"/><rect x="562" y="338" width="30" height="1"/><rect x="0" y="339" width="32" height="1"/><rect x="562" y="339" width="30" height="1"/><rect x="0" y="340" width="32" height="1"/><rect x="562" y="340" width="30" height="1"/><rect x="0" y="341" width="32" height="1"/><rect x="562" y="341" width="30" height="1"/><rect x="0" y="342" width="32" height="1"/><rect x="562" y="342" width="30" height="1"/><rect x="0" y="343" width="32" height="1"/><rect x="562" y="343" width="30" height="1"/><rect x="0" y="344" width="32" height="1"/><rect x="562" y="344" width="30" height="1"/><rect x="0" y="345" width="32" height="1"/><rect x="562" y="345" width="30" height="1"/><rect x="0" y="346" width="32" height="1"/><rect x="562" y="346" width="30" height="1"/><rect x="0" y="347" width="32" height="1"/><rect x="562" y="347" width="30" height="1"/><rect x="0" y="348" width="32" height="1"/><rect x="562" y="348" width="30" height="1"/><rect x="0" y="349" width="32" height="1"/><rect x="562" y="349" width="30" height="1"/><rect x="0" y="350" width="32" height="1"/><rect x="562" y="350" width="30" height="1"/><rect x="0" y="351" width="32" height="1"/><rect x="562" y="351" width="30" height="1"/><rect x="0" y="352" width="32" height="1"/><rect x="562" y="352" width="30" height="1"/><rect x="0" y="353" width="32" height="1"/><rect x="562" y="353" width="30" height="1"/><rect x="0" y="354" width="32" height="1"/><rect x="562" y="354" width="30" height="1"/><rect x="0" y="355" width="32" height="1"/><rect x="562" y="355" width="30" height="1"/><rect x="0" y="356" width="32" height="1"/><rect x="562" y="356" width="30" height="1"/><rect x="0" y="357" width="32" height="1"/><rect x="562" y="357" width="30" height="1"/><rect x="0" y="358" width="32" height="1"/><rect x="560" y="358" width="32" height="1"/><rect x="0" y="359" width="32" height="1"/><rect x="560" y="359" width="32" height="1"/><rect x="0" y="360" width="592" height="1"/><rect x="0" y="361" width="592" height="1"/><rect x="0" y="362" width="592" height="1"/><rect x="0" y="363" width="592" height="1"/><rect x="0" y="364" width="592" height="1"/><rect x="0" y="365" width="592" height="1"/><rect x="0" y="366" width="592" height="1"/><rect x="0" y="367" width="592" height="1"/><rect x="0" y="368" width="592" height="1"/><rect x="0" y="369" width="592" height="1"/><rect x="0" y="370" width="592" height="1"/><rect x="0" y="371" width="592" height="1"/><rect x="2" y="372" width="590" height="1"/><rect x="2" y="373" width="590" height="1"/><rect x="16" y="374" width="560" height="1"/><rect x="16" y="375" width="560" height="1"/><rect x="16" y="376" width="560" height="1"/><rect x="16" y="377" width="560" height="1"/><rect x="16" y="378" width="560" height="1"/><rect x="16" y="379" width="560" height="1"/><rect x="16" y="380" width="560" height="1"/><rect x="16" y="381" width="560" height="1"/><rect x="16" y="382" width="560" height="1"/><rect x="16" y="383" width="560" height="1"/><rect x="16" y="384" width="560" height="1"/><rect x="16" y="385" width="560" height="1"/><rect x="16" y="386" width="560" height="1"/><rect x="16" y="387" width="560" height="1"/>
</g>
</svg>