<svg xmlns="http://www.w3.org/2000/svg" viewBox="0 0 516 446" width="516" height="446">
<g fill="black">
<rect x="234" y="0" width="46" height="1"/><rect x="234" y="1" width="46" height="1"/><rect x="234" y="2" width="46" height="1"/><rect x="234" y="3" width="46" height="1"/><rect x="234" y="4" width="46" height="1"/><rect x="234" y="5" width="46" height="1"/><rect x="234" y="6" width="46" height="1"/><rect x="234" y="7" width="46" height="1"/><rect x="234" y="8" width="46" height="1"/><rect x="234" y="9" width="46" height="1"/><rect x="234" y="10" width="46" height="1"/><rect x="234" y="11" width="46" height="1"/><rect x="200" y="12" width="114" height="1"/><rect x="200" y="13" width="114" height="1"/><rect x="200" y="14" width="114" height="1"/><rect x="200" y="15" width="114" height="1"/><rect x="200" y="16" width="114" height="1"/><rect x="200" y="17" width="114" height="1"/><rect x="200" y="18" width="114" height="1"/><rect x="200" y="19" width="114" height="1"/><rect x="200" y="20" width="114" height="1"/><rect x="200" y="21" width="114" height="1"/><rect x="200" y="22" width="114" height="1"/><rect x="200" y="23" width="114" height="1"/><rect x="166" y="24" width="182" height="1"/><rect x="166" y="25" width="182" height="1"/><rect x="166" y="26" width="184" height="1"/><rect x="166" y="27" width="184" height="1"/><rect x="166" y="28" width="184" height="1"/><rect x="166" y="29" width="184" height="1"/><rect x="166" y="30" width="184" height="1"/><rect x="166" y="31" width="184" height="1"/><rect x="166" y="32" width="184" height="1"/><rect x="166" y="33" width="184" height="1"/><rect x="166" y="34" width="184" height="1"/><rect x="166" y="35" width="184" height="1"/><rect x="132" y="36" width="28" height="1"/><rect x="166" y="36" width="216" height="1"/><rect x="132" y="37" width="30" height="1"/><rect x="166" y="37" width="216" height="1"/><rect x="132" y="38" width="252" height="1"/><rect x="132" y="39" width="252" height="1"/><rect x="132" y="40" width="252" height="1"/><rect x="132" y="41" width="252" height="1"/><rect x="132" y="42" width="252" height="1"/><rect x="132" y="43" width="252" height="1"/><rect x="132" y="44" width="252" height="1"/><rect x="132" y="45" width="252" height="1"/><rect x="132" y="46" width="252" height="1"/><rect x="132" y="47" width="252" height="1"/><rect x="98" y="48" width="26" height="1"/><rect x="130" y="48" width="288" height="1"/><rect x="98" y="49" width="26" height="1"/><rect x="125" y="49" width="2" height="1"/><rect x="130" y="49" width="288" height="1"/><rect x="96" y="50" width="322" height="1"/><rect x="96" y="51" width="322" height="1"/><rect x="96" y="52" width="322" height="1"/><rect x="96" y="53" width="322" height="1"/><rect x="96" y="54" width="322" height="1"/><rect x="96" y="55" width="322" height="1"/><rect x="96" y="56" width="322" height="1"/><rect x="96" y="57" width="322" height="1"/><rect x="96" y="58" width="322" height="1"/><rect x="96" y="59" width="322" height="1"/><rect x="62" y="60" width="390" height="1"/><rect x="62" y="61" width="390" height="1"/><rect x="62" y="62" width="390" height="1"/><rect x="62" y="63" width="390" height="1"/><rect x="62" y="64" width="390" height="1"/><rect x="62" y="65" width="390" height="1"/><rect x="62" y="66" width="390" height="1"/><rect x="62" y="67" width="390" height="1"/><rect x="62" y="68" width="390" height="1"/><rect x="62" y="69" width="390" height="1"/><rect x="62" y="70" width="390" height="1"/><rect x="62" y="71" width="390" height="1"/><rect x="30" y="72" width="454" height="1"/><rect x="30" y="73" width="454" height="1"/><rect x="30" y="74" width="454" height="1"/><rect x="30" y="75" width="454" height="1"/><rect x="30" y="76" width="454" height="1"/><rect x="30" y="77" width="454" height="1"/><rect x="30" y="78" width="454" height="1"/><rect x="30" y="79" width="454" height="1"/><rect x="30" y="80" width="454" height="1"/><rect x="30" y="81" width="454" height="1"/><rect x="30" y="82" width="454" height="1"/><rect x="30" y="83" width="454" height="1"/><rect x="30" y="84" width="454" height="1"/><rect x="30" y="85" width="454" height="1"/><rect x="30" y="86" width="454" height="1"/><rect x="30" y="87" width="454" height="1"/><rect x="30" y="88" width="454" height="1"/><rect x="30" y="89" width="454" height="1"/><rect x="30" y="90" width="454" height="1"/><rect x="30" y="91" width="454" height="1"/><rect x="30" y="92" width="454" height="1"/><rect x="30" y="93" width="454" height="1"/><rect x="30" y="94" width="454" height="1"/><rect x="30" y="95" width="454" height="1"/><rect x="60" y="96" width="424" height="1"/><rect x="60" y="97" width="424" height="1"/><rect x="62" y="98" width="390" height="1"/><rect x="62" y="99" width="390" height="1"/><rect x="62" y="100" width="390" height="1"/><rect x="62" y="101" width="390" height="1"/><rect x="61" y="102" width="391" height="1"/><rect x="62" y="103" width="390" height="1"/><rect x="60" y="104" width="392" height="1"/><rect x="60" y="105" width="392" height="1"/><rect x="62" y="106" width="390" height="1"/><rect x="62" y="107" width="390" height="1"/><rect x="92" y="108" width="334" height="1"/><rect x="430" y="108" width="22" height="1"/><rect x="92" y="109" width="334" height="1"/><rect x="430" y="109" width="22" height="1"/><rect x="92" y="110" width="334" height="1"/><rect x="430" y="110" width="22" height="1"/><rect x="92" y="111" width="334" height="1"/><rect x="430" y="111" width="22" height="1"/><rect x="92" y="112" width="334" height="1"/><rect x="430" y="112" width="22" height="1"/><rect x="92" y="113" width="334" height="1"/><rect x="430" y="113" width="22" height="1"/><rect x="92" y="114" width="302" height="1"/><rect x="430" y="114" width="22" height="1"/><rect x="92" y="115" width="302" height="1"/><rect x="430" y="115" width="22" height="1"/><rect x="92" y="116" width="302" height="1"/><rect x="430" y="116" width="22" height="1"/><rect x="92" y="117" width="302" height="1"/><rect x="430" y="117" width="22" height="1"/><rect x="122" y="118" width="272" height="1"/><rect x="430" y="118" width="22" height="1"/><rect x="122" y="119" width="272" height="1"/><rect x="430" y="119" width="22" height="1"/><rect x="122" y="120" width="272" height="1"/><rect x="430" y="120" width="22" height="1"/><rect x="122" y="121" width="272" height="1"/><rect x="430" y="121" width="22" height="1"/><rect x="122" y="122" width="272" height="1"/><rect x="430" y="122" width="22" height="1"/><rect x="122" y="123" width="272" height="1"/><rect x="430" y="123" width="22" height="1"/><rect x="122" y="124" width="272" height="1"/><rect x="430" y="124" width="22" height="1"/><rect x="122" y="125" width="272" height="1"/><rect x="430" y="125" width="22" height="1"/><rect x="122" y="126" width="238" height="1"/><rect x="430" y="126" width="22" height="1"/><rect x="122" y="127" width="238" height="1"/><rect x="430" y="127" width="22" height="1"/><rect x="156" y="128" width="204" height="1"/><rect x="430" y="128" width="22" height="1"/><rect x="156" y="129" width="204" height="1"/><rect x="430" y="129" width="22" height="1"/><rect x="156" y="130" width="204" height="1"/><rect x="430" y="130" width="22" height="1"/><rect x="156" y="131" width="204" height="1"/><rect x="430" y="131" width="22" height="1"/><rect x="156" y="132" width="204" height="1"/><rect x="430" y="132" width="22" height="1"/><rect x="156" y="133" width="204" height="1"/><rect x="430" y="133" width="22" height="1"/><rect x="156" y="134" width="204" height="1"/><rect x="430" y="134" width="22" height="1"/><rect x="156" y="135" width="204" height="1"/><rect x="430" y="135" width="22" height="1"/><rect x="156" y="136" width="204" height="1"/><rect x="430" y="136" width="22" height="1"/><rect x="156" y="137" width="204" height="1"/><rect x="430" y="137" width="22" height="1"/><rect x="158" y="138" width="168" height="1"/><rect x="430" y="138" width="22" height="1"/><rect x="158" y="139" width="168" height="1"/><rect x="430" y="139" width="22" height="1"/><rect x="194" y="140" width="132" height="1"/><rect x="430" y="140" width="22" height="1"/><rect x="194" y="141" width="132" height="1"/><rect x="430" y="141" width="22" height="1"/><rect x="120" y="142" width="8" height="1"/><rect x="194" y="142" width="132" height="1"/><rect x="360" y="142" width="34" height="1"/><rect x="430" y="142" width="22" height="1"/><rect x="120" y="143" width="9" height="1"/><rect x="194" y="143" width="132" height="1"/><rect x="360" y="143" width="34" height="1"/><rect x="430" y="143" width="22" height="1"/><rect x="120" y="144" width="38" height="1"/><rect x="194" y="144" width="132" height="1"/><rect x="360" y="144" width="34" height="1"/><rect x="430" y="144" width="22" height="1"/><rect x="120" y="145" width="38" height="1"/><rect x="194" y="145" width="132" height="1"/><rect x="360" y="145" width="34" height="1"/><rect x="430" y="145" width="22" height="1"/><rect x="120" y="146" width="38" height="1"/><rect x="194" y="146" width="132" height="1"/><rect x="360" y="146" width="34" height="1"/><rect x="430" y="146" width="22" height="1"/><rect x="120" y="147" width="38" height="1"/><rect x="194" y="147" width="132" height="1"/><rect x="360" y="147" width="34" height="1"/><rect x="430" y="147" width="22" height="1"/><rect x="120" y="148" width="38" height="1"/><rect x="194" y="148" width="132" height="1"/><rect x="360" y="148" width="34" height="1"/><rect x="430" y="148" width="22" height="1"/><rect x="120" y="149" width="38" height="1"/><rect x="194" y="149" width="132" height="1"/><rect x="360" y="149" width="34" height="1"/><rect x="430" y="149" width="22" height="1"/><rect x="120" y="150" width="38" height="1"/><rect x="194" y="150" width="132" height="1"/><rect x="360" y="150" width="34" height="1"/><rect x="430" y="150" width="22" height="1"/><rect x="120" y="151" width="38" height="1"/><rect x="194" y="151" width="132" height="1"/><rect x="360" y="151" width="34" height="1"/><rect x="430" y="151" width="22" height="1"/><rect x="120" y="152" width="38" height="1"/><rect x="230" y="152" width="58" height="1"/><rect x="360" y="152" width="34" height="1"/><rect x="430" y="152" width="22" height="1"/><rect x="120" y="153" width="38" height="1"/><rect x="230" y="153" width="58" height="1"/><rect x="360" y="153" width="34" height="1"/><rect x="430" y="153" width="22" height="1"/><rect x="120" y="154" width="38" height="1"/><rect x="230" y="154" width="58" height="1"/><rect x="360" y="154" width="34" height="1"/><rect x="430" y="154" width="22" height="1"/><rect x="120" y="155" width="38" height="1"/><rect x="230" y="155" width="58" height="1"/><rect x="360" y="155" width="34" height="1"/><rect x="430" y="155" width="22" height="1"/><rect x="120" y="156" width="74" height="1"/><rect x="230" y="156" width="58" height="1"/><rect x="326" y="156" width="68" height="1"/><rect x="430" y="156" width="22" height="1"/><rect x="120" y="157" width="74" height="1"/><rect x="230" y="157" width="58" height="1"/><rect x="326" y="157" width="68" height="1"/><rect x="430" y="157" width="22" height="1"/><rect x="120" y="158" width="74" height="1"/><rect x="230" y="158" width="58" height="1"/><rect x="326" y="158" width="68" height="1"/><rect x="430" y="158" width="22" height="1"/><rect x="120" y="159" width="74" height="1"/><rect x="230" y="159" width="58" height="1"/><rect x="326" y="159" width="68" height="1"/><rect x="430" y="159" width="22" height="1"/><rect x="120" y="160" width="74" height="1"/><rect x="230" y="160" width="58" height="1"/><rect x="326" y="160" width="68" height="1"/><rect x="430" y="160" width="22" height="1"/><rect x="120" y="161" width="74" height="1"/><rect x="230" y="161" width="58" height="1"/><rect x="326" y="161" width="68" height="1"/><rect x="430" y="161" width="22" height="1"/><rect x="120" y="162" width="74" height="1"/><rect x="230" y="162" width="58" height="1"/><rect x="326" y="162" width="68" height="1"/><rect x="430" y="162" width="22" height="1"/><rect x="120" y="163" width="74" height="1"/><rect x="230" y="163" width="58" height="1"/><rect x="326" y="163" width="68" height="1"/><rect x="430" y="163" width="22" height="1"/><rect x="120" y="164" width="74" height="1"/><rect x="260" y="164" width="5" height="1"/><rect x="266" y="164" width="3" height="1"/><rect x="284" y="164" width="2" height="1"/><rect x="326" y="164" width="68" height="1"/><rect x="430" y="164" width="22" height="1"/><rect x="120" y="165" width="74" height="1"/><rect x="261" y="165" width="2" height="1"/><rect x="266" y="165" width="3" height="1"/><rect x="284" y="165" width="2" height="1"/><rect x="326" y="165" width="68" height="1"/><rect x="430" y="165" width="22" height="1"/><rect x="120" y="166" width="74" height="1"/><rect x="326" y="166" width="68" height="1"/><rect x="430" y="166" width="22" height="1"/><rect x="120" y="167" width="74" height="1"/><rect x="326" y="167" width="68" height="1"/><rect x="430" y="167" width="22" height="1"/><rect x="120" y="168" width="96" height="1"/><rect x="290" y="168" width="104" height="1"/><rect x="430" y="168" width="22" height="1"/><rect x="120" y="169" width="96" height="1"/><rect x="290" y="169" width="104" height="1"/><rect x="430" y="169" width="22" height="1"/><rect x="120" y="170" width="110" height="1"/><rect x="288" y="170" width="106" height="1"/><rect x="430" y="170" width="22" height="1"/><rect x="120" y="171" width="110" height="1"/><rect x="288" y="171" width="106" height="1"/><rect x="430" y="171" width="22" height="1"/><rect x="120" y="172" width="110" height="1"/><rect x="288" y="172" width="106" height="1"/><rect x="430" y="172" width="22" height="1"/><rect x="120" y="173" width="110" height="1"/><rect x="288" y="173" width="106" height="1"/><rect x="430" y="173" width="22" height="1"/><rect x="120" y="174" width="110" height="1"/><rect x="288" y="174" width="106" height="1"/><rect x="430" y="174" width="22" height="1"/><rect x="120" y="175" width="110" height="1"/><rect x="288" y="175" width="106" height="1"/><rect x="430" y="175" width="22" height="1"/><rect x="120" y="176" width="110" height="1"/><rect x="288" y="176" width="106" height="1"/><rect x="430" y="176" width="22" height="1"/><rect x="120" y="177" width="110" height="1"/><rect x="288" y="177" width="106" height="1"/><rect x="430" y="177" width="22" height="1"/><rect x="120" y="178" width="110" height="1"/><rect x="288" y="178" width="106" height="1"/><rect x="430" y="178" width="22" height="1"/><rect x="120" y="179" width="110" height="1"/><rect x="288" y="179" width="106" height="1"/><rect x="430" y="179" width="22" height="1"/><rect x="120" y="180" width="110" height="1"/><rect x="288" y="180" width="106" height="1"/><rect x="430" y="180" width="22" height="1"/><rect x="120" y="181" width="110" height="1"/><rect x="288" y="181" width="106" height="1"/><rect x="430" y="181" width="22" height="1"/><rect x="120" y="182" width="110" height="1"/><rect x="288" y="182" width="106" height="1"/><rect x="430" y="182" width="22" height="1"/><rect x="120" y="183" width="110" height="1"/><rect x="288" y="183" width="106" height="1"/><rect x="430" y="183" width="22" height="1"/><rect x="120" y="184" width="274" height="1"/><rect x="424" y="184" width="34" height="1"/><rect x="120" y="185" width="274" height="1"/><rect x="424" y="185" width="34" height="1"/><rect x="120" y="186" width="274" height="1"/><rect x="424" y="186" width="36" height="1"/><rect x="120" y="187" width="274" height="1"/><rect x="424" y="187" width="36" height="1"/><rect x="16" y="188" width="88" height="1"/><rect x="120" y="188" width="274" height="1"/><rect x="410" y="188" width="10" height="1"/><rect x="422" y="188" width="78" height="1"/><rect x="16" y="189" width="88" height="1"/><rect x="120" y="189" width="274" height="1"/><rect x="410" y="189" width="10" height="1"/><rect x="422" y="189" width="78" height="1"/><rect x="16" y="190" width="90" height="1"/><rect x="120" y="190" width="274" height="1"/><rect x="410" y="190" width="90" height="1"/><rect x="16" y="191" width="90" height="1"/><rect x="120" y="191" width="274" height="1"/><rect x="410" y="191" width="90" height="1"/><rect x="16" y="192" width="90" height="1"/><rect x="120" y="192" width="274" height="1"/><rect x="408" y="192" width="92" height="1"/><rect x="16" y="193" width="90" height="1"/><rect x="120" y="193" width="274" height="1"/><rect x="408" y="193" width="92" height="1"/><rect x="16" y="194" width="90" height="1"/><rect x="120" y="194" width="274" height="1"/><rect x="408" y="194" width="92" height="1"/><rect x="16" y="195" width="90" height="1"/><rect x="120" y="195" width="274" height="1"/><rect x="408" y="195" width="92" height="1"/><rect x="16" y="196" width="90" height="1"/><rect x="120" y="196" width="274" height="1"/><rect x="408" y="196" width="92" height="1"/><rect x="16" y="197" width="90" height="1"/><rect x="120" y="197" width="274" height="1"/><rect x="408" y="197" width="92" height="1"/><rect x="16" y="198" width="90" height="1"/><rect x="120" y="198" width="274" height="1"/><rect x="408" y="198" width="92" height="1"/><rect x="16" y="199" width="90" height="1"/><rect x="120" y="199" width="274" height="1"/><rect x="408" y="199" width="92" height="1"/><rect x="14" y="200" width="92" height="1"/><rect x="120" y="200" width="274" height="1"/><rect x="408" y="200" width="92" height="1"/><rect x="14" y="201" width="92" height="1"/><rect x="120" y="201" width="274" height="1"/><rect x="408" y="201" width="92" height="1"/><rect x="0" y="202" width="106" height="1"/><rect x="120" y="202" width="274" height="1"/><rect x="408" y="202" width="108" height="1"/><rect x="0" y="203" width="106" height="1"/><rect x="120" y="203" width="274" height="1"/><rect x="408" y="203" width="108" height="1"/><rect x="0" y="204" width="106" height="1"/><rect x="120" y="204" width="274" height="1"/><rect x="408" y="204" width="106" height="1"/><rect x="0" y="205" width="106" height="1"/><rect x="120" y="205" width="274" height="1"/><rect x="408" y="205" width="106" height="1"/><rect x="0" y="206" width="106" height="1"/><rect x="120" y="206" width="274" height="1"/><rect x="408" y="206" width="106" height="1"/><rect x="0" y="207" width="106" height="1"/><rect x="120" y="207" width="274" height="1"/><rect x="408" y="207" width="106" height="1"/><rect x="0" y="208" width="106" height="1"/><rect x="120" y="208" width="274" height="1"/><rect x="408" y="208" width="106" height="1"/><rect x="0" y="209" width="106" height="1"/><rect x="120" y="209" width="274" height="1"/><rect x="408" y="209" width="106" height="1"/><rect x="0" y="210" width="106" height="1"/><rect x="120" y="210" width="274" height="1"/><rect x="408" y="210" width="106" height="1"/><rect x="0" y="211" width="106" height="1"/><rect x="120" y="211" width="274" height="1"/><rect x="408" y="211" width="106" height="1"/><rect x="0" y="212" width="106" height="1"/><rect x="120" y="212" width="274" height="1"/><rect x="408" y="212" width="106" height="1"/><rect x="0" y="213" width="106" height="1"/><rect x="120" y="213" width="274" height="1"/><rect x="408" y="213" width="106" height="1"/><rect x="0" y="214" width="28" height="1"/><rect x="120" y="214" width="274" height="1"/><rect x="420" y="214" width="42" height="1"/><rect x="486" y="214" width="28" height="1"/><rect x="0" y="215" width="28" height="1"/><rect x="120" y="215" width="274" height="1"/><rect x="420" y="215" width="42" height="1"/><rect x="486" y="215" width="28" height="1"/><rect x="0" y="216" width="28" height="1"/><rect x="120" y="216" width="274" height="1"/><rect x="420" y="216" width="42" height="1"/><rect x="486" y="216" width="28" height="1"/><rect x="0" y="217" width="28" height="1"/><rect x="120" y="217" width="274" height="1"/><rect x="420" y="217" width="42" height="1"/><rect x="486" y="217" width="28" height="1"/><rect x="0" y="218" width="28" height="1"/><rect x="120" y="218" width="274" height="1"/><rect x="420" y="218" width="44" height="1"/><rect x="486" y="218" width="28" height="1"/><rect x="0" y="219" width="28" height="1"/><rect x="120" y="219" width="274" height="1"/><rect x="420" y="219" width="44" height="1"/><rect x="486" y="219" width="28" height="1"/><rect x="0" y="220" width="28" height="1"/><rect x="120" y="220" width="274" height="1"/><rect x="420" y="220" width="44" height="1"/><rect x="486" y="220" width="28" height="1"/><rect x="0" y="221" width="28" height="1"/><rect x="120" y="221" width="274" height="1"/><rect x="420" y="221" width="44" height="1"/><rect x="486" y="221" width="28" height="1"/><rect x="0" y="222" width="28" height="1"/><rect x="120" y="222" width="274" height="1"/><rect x="420" y="222" width="44" height="1"/><rect x="486" y="222" width="28" height="1"/><rect x="0" y="223" width="28" height="1"/><rect x="120" y="223" width="274" height="1"/><rect x="420" y="223" width="44" height="1"/><rect x="486" y="223" width="28" height="1"/><rect x="0" y="224" width="28" height="1"/><rect x="120" y="224" width="274" height="1"/><rect x="420" y="224" width="44" height="1"/><rect x="486" y="224" width="28" height="1"/><rect x="0" y="225" width="28" height="1"/><rect x="120" y="225" width="274" height="1"/><rect x="420" y="225" width="44" height="1"/><rect x="486" y="225" width="28" height="1"/><rect x="0" y="226" width="28" height="1"/><rect x="120" y="226" width="274" height="1"/><rect x="420" y="226" width="44" height="1"/><rect x="486" y="226" width="28" height="1"/><rect x="0" y="227" width="28" height="1"/><rect x="120" y="227" width="274" height="1"/><rect x="420" y="227" width="44" height="1"/><rect x="486" y="227" width="28" height="1"/><rect x="0" y="228" width="28" height="1"/><rect x="120" y="228" width="274" height="1"/><rect x="420" y="228" width="44" height="1"/><rect x="486" y="228" width="28" height="1"/><rect x="0" y="229" width="28" height="1"/><rect x="120" y="229" width="274" height="1"/><rect x="420" y="229" width="44" height="1"/><rect x="486" y="229" width="28" height="1"/><rect x="0" y="230" width="28" height="1"/><rect x="120" y="230" width="274" height="1"/><rect x="420" y="230" width="44" height="1"/><rect x="486" y="230" width="28" height="1"/><rect x="0" y="231" width="28" height="1"/><rect x="120" y="231" width="274" height="1"/><rect x="420" y="231" width="44" height="1"/><rect x="486" y="231" width="28" height="1"/><rect x="0" y="232" width="28" height="1"/><rect x="120" y="232" width="274" height="1"/><rect x="420" y="232" width="44" height="1"/><rect x="486" y="232" width="28" height="1"/><rect x="0" y="233" width="28" height="1"/><rect x="120" y="233" width="274" height="1"/><rect x="420" y="233" width="44" height="1"/><rect x="486" y="233" width="28" height="1"/><rect x="0" y="234" width="28" height="1"/><rect x="120" y="234" width="274" height="1"/><rect x="420" y="234" width="44" height="1"/><rect x="486" y="234" width="28" height="1"/><rect x="0" y="235" width="28" height="1"/><rect x="120" y="235" width="274" height="1"/><rect x="420" y="235" width="44" height="1"/><rect x="486" y="235" width="28" height="1"/><rect x="0" y="236" width="28" height="1"/><rect x="120" y="236" width="274" height="1"/><rect x="420" y="236" width="44" height="1"/><rect x="486" y="236" width="28" height="1"/><rect x="0" y="237" width="28" height="1"/><rect x="120" y="237" width="274" height="1"/><rect x="420" y="237" width="44" height="1"/><rect x="486" y="237" width="28" height="1"/><rect x="0" y="238" width="28" height="1"/><rect x="120" y="238" width="274" height="1"/><rect x="420" y="238" width="44" height="1"/><rect x="486" y="238" width="28" height="1"/><rect x="0" y="239" width="28" height="1"/><rect x="120" y="239" width="274" height="1"/><rect x="420" y="239" width="44" height="1"/><rect x="486" y="239" width="28" height="1"/><rect x="0" y="240" width="28" height="1"/><rect x="138" y="240" width="238" height="1"/><rect x="420" y="240" width="44" height="1"/><rect x="486" y="240" width="28" height="1"/><rect x="0" y="241" width="28" height="1"/><rect x="138" y="241" width="238" height="1"/><rect x="420" y="241" width="44" height="1"/><rect x="486" y="241" width="28" height="1"/><rect x="0" y="242" width="28" height="1"/><rect x="140" y="242" width="236" height="1"/><rect x="420" y="242" width="44" height="1"/><rect x="486" y="242" width="28" height="1"/><rect x="0" y="243" width="28" height="1"/><rect x="140" y="243" width="236" height="1"/><rect x="420" y="243" width="44" height="1"/><rect x="486" y="243" width="28" height="1"/><rect x="0" y="244" width="28" height="1"/><rect x="138" y="244" width="238" height="1"/><rect x="420" y="244" width="44" height="1"/><rect x="486" y="244" width="28" height="1"/><rect x="0" y="245" width="28" height="1"/><rect x="138" y="245" width="238" height="1"/><rect x="420" y="245" width="44" height="1"/><rect x="486" y="245" width="28" height="1"/><rect x="0" y="246" width="28" height="1"/><rect x="138" y="246" width="238" height="1"/><rect x="420" y="246" width="44" height="1"/><rect x="486" y="246" width="28" height="1"/><rect x="0" y="247" width="28" height="1"/><rect x="138" y="247" width="238" height="1"/><rect x="420" y="247" width="44" height="1"/><rect x="486" y="247" width="28" height="1"/><rect x="0" y="248" width="28" height="1"/><rect x="138" y="248" width="238" height="1"/><rect x="420" y="248" width="44" height="1"/><rect x="486" y="248" width="28" height="1"/><rect x="0" y="249" width="28" height="1"/><rect x="138" y="249" width="238" height="1"/><rect x="420" y="249" width="44" height="1"/><rect x="486" y="249" width="28" height="1"/><rect x="0" y="250" width="28" height="1"/><rect x="138" y="250" width="238" height="1"/><rect x="420" y="250" width="44" height="1"/><rect x="486" y="250" width="28" height="1"/><rect x="0" y="251" width="28" height="1"/><rect x="138" y="251" width="238" height="1"/><rect x="420" y="251" width="44" height="1"/><rect x="486" y="251" width="28" height="1"/><rect x="0" y="252" width="28" height="1"/><rect x="140" y="252" width="213" height="1"/><rect x="355" y="252" width="21" height="1"/><rect x="420" y="252" width="44" height="1"/><rect x="486" y="252" width="28" height="1"/><rect x="0" y="253" width="28" height="1"/><rect x="140" y="253" width="213" height="1"/><rect x="356" y="253" width="20" height="1"/><rect x="420" y="253" width="44" height="1"/><rect x="486" y="253" width="28" height="1"/><rect x="0" y="254" width="28" height="1"/><rect x="164" y="254" width="188" height="1"/><rect x="486" y="254" width="28" height="1"/><rect x="0" y="255" width="28" height="1"/><rect x="164" y="255" width="188" height="1"/><rect x="486" y="255" width="28" height="1"/><rect x="0" y="256" width="28" height="1"/><rect x="164" y="256" width="188" height="1"/><rect x="486" y="256" width="28" height="1"/><rect x="0" y="257" width="28" height="1"/><rect x="164" y="257" width="188" height="1"/><rect x="486" y="257" width="28" height="1"/><rect x="0" y="258" width="28" height="1"/><rect x="164" y="258" width="188" height="1"/><rect x="486" y="258" width="28" height="1"/><rect x="0" y="259" width="28" height="1"/><rect x="164" y="259" width="188" height="1"/><rect x="486" y="259" width="28" height="1"/><rect x="0" y="260" width="28" height="1"/><rect x="164" y="260" width="188" height="1"/><rect x="486" y="260" width="28" height="1"/><rect x="0" y="261" width="28" height="1"/><rect x="164" y="261" width="188" height="1"/><rect x="486" y="261" width="28" height="1"/><rect x="0" y="262" width="28" height="1"/><rect x="164" y="262" width="188" height="1"/><rect x="486" y="262" width="28" height="1"/><rect x="0" y="263" width="28" height="1"/><rect x="164" y="263" width="188" height="1"/><rect x="486" y="263" width="28" height="1"/><rect x="0" y="264" width="28" height="1"/><rect x="164" y="264" width="188" height="1"/><rect x="486" y="264" width="28" height="1"/><rect x="0" y="265" width="28" height="1"/><rect x="164" y="265" width="188" height="1"/><rect x="486" y="265" width="28" height="1"/><rect x="0" y="266" width="28" height="1"/><rect x="204" y="266" width="106" height="1"/><rect x="486" y="266" width="28" height="1"/><rect x="0" y="267" width="28" height="1"/><rect x="204" y="267" width="106" height="1"/><rect x="486" y="267" width="28" height="1"/><rect x="0" y="268" width="28" height="1"/><rect x="204" y="268" width="106" height="1"/><rect x="486" y="268" width="28" height="1"/><rect x="0" y="269" width="28" height="1"/><rect x="204" y="269" width="106" height="1"/><rect x="486" y="269" width="28" height="1"/><rect x="0" y="270" width="28" height="1"/><rect x="204" y="270" width="106" height="1"/><rect x="486" y="270" width="28" height="1"/><rect x="0" y="271" width="28" height="1"/><rect x="204" y="271" width="106" height="1"/><rect x="486" y="271" width="28" height="1"/><rect x="0" y="272" width="28" height="1"/><rect x="204" y="272" width="106" height="1"/><rect x="486" y="272" width="28" height="1"/><rect x="0" y="273" width="28" height="1"/><rect x="204" y="273" width="106" height="1"/><rect x="486" y="273" width="28" height="1"/><rect x="0" y="274" width="28" height="1"/><rect x="204" y="274" width="106" height="1"/><rect x="486" y="274" width="28" height="1"/><rect x="0" y="275" width="28" height="1"/><rect x="204" y="275" width="106" height="1"/><rect x="486" y="275" width="28" height="1"/><rect x="0" y="276" width="28" height="1"/><rect x="204" y="276" width="106" height="1"/><rect x="486" y="276" width="28" height="1"/><rect x="0" y="277" width="28" height="1"/><rect x="204" y="277" width="106" height="1"/><rect x="486" y="277" width="28" height="1"/><rect x="0" y="278" width="28" height="1"/><rect x="204" y="278" width="106" height="1"/><rect x="486" y="278" width="28" height="1"/><rect x="0" y="279" width="28" height="1"/><rect x="204" y="279" width="106" height="1"/><rect x="486" y="279" width="28" height="1"/><rect x="0" y="280" width="28" height="1"/><rect x="486" y="280" width="28" height="1"/><rect x="0" y="281" width="28" height="1"/><rect x="486" y="281" width="28" height="1"/><rect x="0" y="282" width="28" height="1"/><rect x="486" y="282" width="28" height="1"/><rect x="0" y="283" width="28" height="1"/><rect x="486" y="283" width="28" height="1"/><rect x="0" y="284" width="28" height="1"/><rect x="486" y="284" width="28" height="1"/><rect x="0" y="285" width="28" height="1"/><rect x="486" y="285" width="28" height="1"/><rect x="0" y="286" width="28" height="1"/><rect x="486" y="286" width="28" height="1"/><rect x="0" y="287" width="28" height="1"/><rect x="486" y="287" width="28" height="1"/><rect x="0" y="288" width="28" height="1"/><rect x="486" y="288" width="28" height="1"/><rect x="0" y="289" width="28" height="1"/><rect x="486" y="289" width="28" height="1"/><rect x="0" y="290" width="28" height="1"/><rect x="486" y="290" width="28" height="1"/><rect x="0" y="291" width="28" height="1"/><rect x="486" y="291" width="28" height="1"/><rect x="0" y="292" width="28" height="1"/><rect x="486" y="292" width="28" height="1"/><rect x="0" y="293" width="28" height="1"/><rect x="486" y="293" width="28" height="1"/><rect x="0" y="294" width="28" height="1"/><rect x="486" y="294" width="28" height="1"/><rect x="0" y="295" width="28" height="1"/><rect x="486" y="295" width="28" height="1"/><rect x="0" y="296" width="28" height="1"/><rect x="486" y="296" width="28" height="1"/><rect x="0" y="297" width="28" height="1"/><rect x="486" y="297" width="28" height="1"/><rect x="0" y="298" width="28" height="1"/><rect x="486" y="298" width="28" height="1"/><rect x="0" y="299" width="28" height="1"/><rect x="486" y="299" width="28" height="1"/><rect x="0" y="300" width="28" height="1"/><rect x="486" y="300" width="28" height="1"/><rect x="0" y="301" width="28" height="1"/><rect x="486" y="301" width="28" height="1"/><rect x="0" y="302" width="28" height="1"/><rect x="486" y="302" width="28" height="1"/><rect x="0" y="303" width="28" height="1"/><rect x="486" y="303" width="28" height="1"/><rect x="0" y="304" width="28" height="1"/><rect x="486" y="304" width="28" height="1"/><rect x="0" y="305" width="28" height="1"/><rect x="486" y="305" width="28" height="1"/><rect x="0" y="306" width="28" height="1"/><rect x="486" y="306" width="28" height="1"/><rect x="0" y="307" width="28" height="1"/><rect x="486" y="307" width="28" height="1"/><rect x="0" y="308" width="28" height="1"/><rect x="486" y="308" width="28" height="1"/><rect x="0" y="309" width="28" height="1"/><rect x="486" y="309" width="28" height="1"/><rect x="0" y="310" width="28" height="1"/><rect x="72" y="310" width="370" height="1"/><rect x="486" y="310" width="28" height="1"/><rect x="0" y="311" width="28" height="1"/><rect x="72" y="311" width="370" height="1"/><rect x="486" y="311" width="28" height="1"/><rect x="0" y="312" width="28" height="1"/><rect x="72" y="312" width="370" height="1"/><rect x="486" y="312" width="28" height="1"/><rect x="0" y="313" width="28" height="1"/><rect x="72" y="313" width="370" height="1"/><rect x="486" y="313" width="28" height="1"/><rect x="0" y="314" width="28" height="1"/><rect x="72" y="314" width="370" height="1"/><rect x="486" y="314" width="28" height="1"/><rect x="0" y="315" width="28" height="1"/><rect x="72" y="315" width="370" height="1"/><rect x="486" y="315" width="28" height="1"/><rect x="0" y="316" width="28" height="1"/><rect x="72" y="316" width="370" height="1"/><rect x="486" y="316" width="28" height="1"/><rect x="0" y="317" width="28" height="1"/><rect x="72" y="317" width="370" height="1"/><rect x="486" y="317" width="28" height="1"/><rect x="0" y="318" width="28" height="1"/><rect x="72" y="318" width="370" height="1"/><rect x="486" y="318" width="28" height="1"/><rect x="0" y="319" width="28" height="1"/><rect x="72" y="319" width="370" height="1"/><rect x="486" y="319" width="28" height="1"/><rect x="0" y="320" width="28" height="1"/><rect x="72" y="320" width="370" height="1"/><rect x="486" y="320" width="28" height="1"/><rect x="0" y="321" width="28" height="1"/><rect x="72" y="321" width="370" height="1"/><rect x="486" y="321" width="28" height="1"/><rect x="0" y="322" width="28" height="1"/><rect x="72" y="322" width="370" height="1"/><rect x="486" y="322" width="28" height="1"/><rect x="0" y="323" width="28" height="1"/><rect x="72" y="323" width="370" height="1"/><rect x="486" y="323" width="28" height="1"/><rect x="0" y="324" width="28" height="1"/><rect x="72" y="324" width="370" height="1"/><rect x="486" y="324" width="28" height="1"/><rect x="0" y="325" width="28" height="1"/><rect x="72" y="325" width="370" height="1"/><rect x="486" y="325" width="28" height="1"/><rect x="0" y="326" width="28" height="1"/><rect x="72" y="326" width="370" height="1"/><rect x="486" y="326" width="28" height="1"/><rect x="0" y="327" width="28" height="1"/><rect x="72" y="327" width="370" height="1"/><rect x="486" y="327" width="28" height="1"/><rect x="0" y="328" width="28" height="1"/><rect x="72" y="328" width="370" height="1"/><rect x="486" y="328" width="28" height="1"/><rect x="0" y="329" width="28" height="1"/><rect x="72" y="329" width="370" height="1"/><rect x="486" y="329" width="28" height="1"/><rect x="0" y="330" width="28" height="1"/><rect x="72" y="330" width="370" height="1"/><rect x="486" y="330" width="28" height="1"/><rect x="0" y="331" width="28" height="1"/><rect x="72" y="331" width="370" height="1"/><rect x="486" y="331" width="28" height="1"/><rect x="0" y="332" width="28" height="1"/><rect x="486" y="332" width="28" height="1"/><rect x="0" y="333" width="28" height="1"/><rect x="486" y="333" width="28" height="1"/><rect x="0" y="334" width="28" height="1"/><rect x="486" y="334" width="28" height="1"/><rect x="0" y="335" width="28" height="1"/><rect x="486" y="335" width="28" height="1"/><rect x="0" y="336" width="28" height="1"/><rect x="486" y="336" width="28" height="1"/><rect x="0" y="337" width="28" height="1"/><rect x="486" y="337" width="28" height="1"/><rect x="0" y="338" width="28" height="1"/><rect x="486" y="338" width="28" height="1"/><rect x="0" y="339" width="28" height="1"/><rect x="486" y="339" width="28" height="1"/><rect x="0" y="340" width="28" height="1"/><rect x="486" y="340" width="28" height="1"/><rect x="0" y="341" width="28" height="1"/><rect x="486" y="341" width="28" height="1"/><rect x="0" y="342" width="28" height="1"/><rect x="486" y="342" width="28" height="1"/><rect x="0" y="343" width="28" height="1"/><rect x="486" y="343" width="28" height="1"/><rect x="0" y="344" width="28" height="1"/><rect x="486" y="344" width="28" height="1"/><rect x="0" y="345" width="28" height="1"/><rect x="486" y="345" width="28" height="1"/><rect x="0" y="346" width="28" height="1"/><rect x="486" y="346" width="28" height="1"/><rect x="0" y="347" width="28" height="1"/><rect x="486" y="347" width="28" height="1"/><rect x="515" y="347" width="1" height="1"/><rect x="0" y="348" width="28" height="1"/><rect x="486" y="348" width="30" height="1"/><rect x="0" y="349" width="28" height="1"/><rect x="486" y="349" width="30" height="1"/><rect x="0" y="350" width="28" height="1"/><rect x="486" y="350" width="28" height="1"/><rect x="515" y="350" width="1" height="1"/><rect x="0" y="351" width="28" height="1"/><rect x="486" y="351" width="30" height="1"/><rect x="0" y="352" width="28" height="1"/><rect x="486" y="352" width="30" height="1"/><rect x="0" y="353" width="28" height="1"/><rect x="486" y="353" width="30" height="1"/><rect x="0" y="354" width="28" height="1"/><rect x="486" y="354" width="28" height="1"/><rect x="515" y="354" width="1" height="1"/><rect x="0" y="355" width="28" height="1"/><rect x="486" y="355" width="30" height="1"/><rect x="0" y="356" width="28" height="1"/><rect x="486" y="356" width="28" height="1"/><rect x="0" y="357" width="28" height="1"/><rect x="486" y="357" width="29" height="1"/><rect x="0" y="358" width="28" height="1"/><rect x="74" y="358" width="368" height="1"/><rect x="486" y="358" width="28" height="1"/><rect x="0" y="359" width="28" height="1"/><rect x="74" y="359" width="368" height="1"/><rect x="486" y="359" width="28" height="1"/><rect x="0" y="360" width="28" height="1"/><rect x="72" y="360" width="370" height="1"/><rect x="486" y="360" width="28" height="1"/><rect x="0" y="361" width="28" height="1"/><rect x="72" y="361" width="370" height="1"/><rect x="486" y="361" width="28" height="1"/><rect x="0" y="362" width="28" height="1"/><rect x="72" y="362" width="370" height="1"/><rect x="486" y="362" width="28" height="1"/><rect x="0" y="363" width="28" height="1"/><rect x="72" y="363" width="370" height="1"/><rect x="486" y="363" width="28" height="1"/><rect x="0" y="364" width="28" height="1"/><rect x="72" y="364" width="370" height="1"/><rect x="486" y="364" width="28" height="1"/><rect x="0" y="365" width="28" height="1"/><rect x="72" y="365" width="370" height="1"/><rect x="486" y="365" width="28" height="1"/><rect x="0" y="366" width="28" height="1"/><rect x="72" y="366" width="370" height="1"/><rect x="486" y="366" width="28" height="1"/><rect x="0" y="367" width="28" height="1"/><rect x="72" y="367" width="370" height="1"/><rect x="486" y="367" width="28" height="1"/><rect x="0" y="368" width="28" height="1"/><rect x="72" y="368" width="370" height="1"/><rect x="486" y="368" width="28" height="1"/><rect x="0" y="369" width="28" height="1"/><rect x="72" y="369" width="370" height="1"/><rect x="486" y="369" width="28" height="1"/><rect x="0" y="370" width="28" height="1"/><rect x="72" y="370" width="370" height="1"/><rect x="486" y="370" width="28" height="1"/><rect x="0" y="371" width="28" height="1"/><rect x="72" y="371" width="370" height="1"/><rect x="486" y="371" width="28" height="1"/><rect x="0" y="372" width="28" height="1"/><rect x="72" y="372" width="370" height="1"/><rect x="486" y="372" width="28" height="1"/><rect x="0" y="373" width="28" height="1"/><rect x="72" y="373" width="370" height="1"/><rect x="486" y="373" width="28" height="1"/><rect x="0" y="374" width="28" height="1"/><rect x="72" y="374" width="370" height="1"/><rect x="486" y="374" width="28" height="1"/><rect x="0" y="375" width="28" height="1"/><rect x="72" y="375" width="370" height="1"/><rect x="486" y="375" width="28" height="1"/><rect x="0" y="376" width="28" height="1"/><rect x="72" y="376" width="370" height="1"/><rect x="486" y="376" width="28" height="1"/><rect x="0" y="377" width="28" height="1"/><rect x="72" y="377" width="370" height="1"/><rect x="486" y="377" width="28" height="1"/><rect x="0" y="378" width="28" height="1"/><rect x="72" y="378" width="370" height="1"/><rect x="486" y="378" width="28" height="1"/><rect x="0" y="379" width="28" height="1"/><rect x="72" y="379" width="370" height="1"/><rect x="486" y="379" width="28" height="1"/><rect x="0" y="380" width="28" height="1"/><rect x="486" y="380" width="28" height="1"/><rect x="0" y="381" width="28" height="1"/><rect x="486" y="381" width="28" height="1"/><rect x="0" y="382" width="28" height="1"/><rect x="486" y="382" width="28" height="1"/><rect x="0" y="383" width="28" height="1"/><rect x="486" y="383" width="28" height="1"/><rect x="0" y="384" width="28" height="1"/><rect x="486" y="384" width="28" height="1"/><rect x="0" y="385" width="28" height="1"/><rect x="486" y="385" width="28" height="1"/><rect x="0" y="386" width="28" height="1"/><rect x="486" y="386" width="28" height="1"/><rect x="0" y="387" width="28" height="1"/><rect x="486" y="387" width="28" height="1"/><rect x="0" y="388" width="28" height="1"/><rect x="486" y="388" width="28" height="1"/><rect x="0" y="389" width="28" height="1"/><rect x="486" y="389" width="28" height="1"/><rect x="0" y="390" width="28" height="1"/><rect x="486" y="390" width="28" height="1"/><rect x="0" y="391" width="28" height="1"/><rect x="486" y="391" width="28" height="1"/><rect x="0" y="392" width="28" height="1"/><rect x="486" y="392" width="28" height="1"/><rect x="0" y="393" width="28" height="1"/><rect x="486" y="393" width="28" height="1"/><rect x="0" y="394" width="28" height="1"/><rect x="486" y="394" width="28" height="1"/><rect x="0" y="395" width="28" height="1"/><rect x="486" y="395" width="28" height="1"/><rect x="0" y="396" width="28" height="1"/><rect x="486" y="396" width="28" height="1"/><rect x="0" y="397" width="28" height="1"/><rect x="486" y="397" width="28" height="1"/><rect x="0" y="398" width="28" height="1"/><rect x="486" y="398" width="28" height="1"/><rect x="0" y="399" width="28" height="1"/><rect x="486" y="399" width="28" height="1"/><rect x="0" y="400" width="28" height="1"/><rect x="486" y="400" width="28" height="1"/><rect x="0" y="401" width="28" height="1"/><rect x="486" y="401" width="28" height="1"/><rect x="0" y="402" width="28" height="1"/><rect x="486" y="402" width="28" height="1"/><rect x="0" y="403" width="28" height="1"/><rect x="486" y="403" width="28" height="1"/><rect x="0" y="404" width="28" height="1"/><rect x="486" y="404" width="28" height="1"/><rect x="0" y="405" width="28" height="1"/><rect x="486" y="405" width="28" height="1"/><rect x="0" y="406" width="28" height="1"/><rect x="486" y="406" width="28" height="1"/><rect x="0" y="407" width="28" height="1"/><rect x="486" y="407" width="28" height="1"/><rect x="0" y="408" width="28" height="1"/><rect x="486" y="408" width="28" height="1"/><rect x="0" y="409" width="28" height="1"/><rect x="486" y="409" width="28" height="1"/><rect x="0" y="410" width="28" height="1"/><rect x="486" y="410" width="28" height="1"/><rect x="0" y="411" width="28" height="1"/><rect x="486" y="411" width="28" height="1"/><rect x="0" y="412" width="28" height="1"/><rect x="486" y="412" width="28" height="1"/><rect x="0" y="413" width="28" height="1"/><rect x="486" y="413" width="28" height="1"/><rect x="0" y="414" width="28" height="1"/><rect x="486" y="414" width="28" height="1"/><rect x="0" y="415" width="28" height="1"/><rect x="486" y="415" width="28" height="1"/><rect x="0" y="416" width="28" height="1"/><rect x="486" y="416" width="28" height="1"/><rect x="0" y="417" width="28" height="1"/><rect x="486" y="417" width="28" height="1"/><rect x="0" y="418" width="28" height="1"/><rect x="486" y="418" width="28" height="1"/><rect x="0" y="419" width="28" height="1"/><rect x="486" y="419" width="28" height="1"/><rect x="0" y="420" width="33" height="1"/><rect x="84" y="420" width="31" height="1"/><rect x="158" y="420" width="1" height="1"/><rect x="160" y="420" width="22" height="1"/><rect x="184" y="420" width="1" height="1"/><rect x="201" y="420" width="5" height="1"/><rect x="220" y="420" width="25" height="1"/><rect x="360" y="420" width="114" height="1"/><rect x="486" y="420" width="28" height="1"/><rect x="0" y="421" width="34" height="1"/><rect x="82" y="421" width="1" height="1"/><rect x="84" y="421" width="31" height="1"/><rect x="160" y="421" width="22" height="1"/><rect x="200" y="421" width="2" height="1"/><rect x="203" y="421" width="1" height="1"/><rect x="205" y="421" width="1" height="1"/><rect x="207" y="421" width="1" height="1"/><rect x="209" y="421" width="1" height="1"/><rect x="222" y="421" width="24" height="1"/><rect x="360" y="421" width="116" height="1"/><rect x="486" y="421" width="28" height="1"/><rect x="0" y="422" width="514" height="1"/><rect x="0" y="423" width="514" height="1"/><rect x="0" y="424" width="514" height="1"/><rect x="0" y="425" width="514" height="1"/><rect x="0" y="426" width="514" height="1"/><rect x="0" y="427" width="514" height="1"/><rect x="0" y="428" width="514" height="1"/><rect x="0" y="429" width="514" height="1"/><rect x="0" y="430" width="514" height="1"/><rect x="0" y="431" width="514" height="1"/><rect x="0" y="432" width="514" height="1"/><rect x="0" y="433" width="514" height="1"/><rect x="16" y="434" width="484" height="1"/><rect x="16" y="435" width="484" height="1"/><rect x="16" y="436" width="484" height="1"/><rect x="16" y="437" width="484" height="1"/><rect x="16" y="438" width="484" height="1"/><rect x="16" y="439" width="484" height="1"/><rect x="16" y="440" width="484" height="1"/><rect x="16" y="441" width="484" height="1"/><rect x="16" y="442" width="484" height="1"/><rect x="16" y="443" width="484" height="1"/><rect x="16" y="444" width="484" height="1"/><rect x="16" y="445" width="484" height="1"/>
</g>
</svg>