<svg xmlns="http://www.w3.org/2000/svg" viewBox="0 0 400 398" width="400" height="398">
    <g fill="#000000">
        <rect x="146" y="0" width="108" height="1" />
        <rect x="146" y="1" width="108" height="1" />
        <rect x="144" y="2" width="112" height="1" />
        <rect x="144" y="3" width="112" height="1" />
        <rect x="144" y="4" width="112" height="1" />
        <rect x="144" y="5" width="112" height="1" />
        <rect x="146" y="6" width="110" height="1" />
        <rect x="146" y="7" width="110" height="1" />
        <rect x="146" y="8" width="110" height="1" />
        <rect x="146" y="9" width="110" height="1" />
        <rect x="146" y="10" width="110" height="1" />
        <rect x="146" y="11" width="110" height="1" />
        <rect x="146" y="12" width="110" height="1" />
        <rect x="146" y="13" width="110" height="1" />
        <rect x="146" y="14" width="110" height="1" />
        <rect x="146" y="15" width="110" height="1" />
        <rect x="146" y="16" width="110" height="1" />
        <rect x="146" y="17" width="110" height="1" />
        <rect x="146" y="18" width="110" height="1" />
        <rect x="146" y="19" width="110" height="1" />
        <rect x="146" y="20" width="110" height="1" />
        <rect x="146" y="21" width="110" height="1" />
        <rect x="146" y="22" width="108" height="1" />
        <rect x="146" y="23" width="108" height="1" />
        <rect x="146" y="24" width="108" height="1" />
        <rect x="146" y="25" width="108" height="1" />
        <rect x="118" y="26" width="164" height="1" />
        <rect x="118" y="27" width="164" height="1" />
        <rect x="118" y="28" width="164" height="1" />
        <rect x="118" y="29" width="164" height="1" />
        <rect x="118" y="30" width="164" height="1" />
        <rect x="118" y="31" width="164" height="1" />
        <rect x="118" y="32" width="164" height="1" />
        <rect x="118" y="33" width="164" height="1" />
        <rect x="118" y="34" width="164" height="1" />
        <rect x="118" y="35" width="164" height="1" />
        <rect x="118" y="36" width="164" height="1" />
        <rect x="118" y="37" width="164" height="1" />
        <rect x="118" y="38" width="164" height="1" />
        <rect x="118" y="39" width="164" height="1" />
        <rect x="118" y="40" width="164" height="1" />
        <rect x="118" y="41" width="164" height="1" />
        <rect x="118" y="42" width="164" height="1" />
        <rect x="118" y="43" width="164" height="1" />
        <rect x="118" y="44" width="164" height="1" />
        <rect x="118" y="45" width="164" height="1" />
        <rect x="118" y="46" width="164" height="1" />
        <rect x="118" y="47" width="164" height="1" />
        <rect x="118" y="48" width="164" height="1" />
        <rect x="118" y="49" width="164" height="1" />
        <rect x="118" y="50" width="164" height="1" />
        <rect x="118" y="51" width="164" height="1" />
        <rect x="118" y="52" width="164" height="1" />
        <rect x="118" y="53" width="164" height="1" />
        <rect x="118" y="54" width="164" height="1" />
        <rect x="118" y="55" width="164" height="1" />
        <rect x="118" y="56" width="164" height="1" />
        <rect x="118" y="57" width="164" height="1" />
        <rect x="92" y="58" width="6" height="1" />
        <rect x="118" y="58" width="164" height="1" />
        <rect x="306" y="58" width="2" height="1" />
        <rect x="92" y="59" width="4" height="1" />
        <rect x="97" y="59" width="1" height="1" />
        <rect x="118" y="59" width="164" height="1" />
        <rect x="306" y="59" width="2" height="1" />
        <rect x="90" y="60" width="220" height="1" />
        <rect x="90" y="61" width="220" height="1" />
        <rect x="90" y="62" width="220" height="1" />
        <rect x="90" y="63" width="220" height="1" />
        <rect x="92" y="64" width="218" height="1" />
        <rect x="92" y="65" width="218" height="1" />
        <rect x="92" y="66" width="218" height="1" />
        <rect x="92" y="67" width="218" height="1" />
        <rect x="92" y="68" width="218" height="1" />
        <rect x="92" y="69" width="218" height="1" />
        <rect x="92" y="70" width="218" height="1" />
        <rect x="92" y="71" width="218" height="1" />
        <rect x="92" y="72" width="218" height="1" />
        <rect x="92" y="73" width="218" height="1" />
        <rect x="92" y="74" width="218" height="1" />
        <rect x="92" y="75" width="218" height="1" />
        <rect x="92" y="76" width="218" height="1" />
        <rect x="92" y="77" width="218" height="1" />
        <rect x="92" y="78" width="218" height="1" />
        <rect x="92" y="79" width="218" height="1" />
        <rect x="92" y="80" width="218" height="1" />
        <rect x="92" y="81" width="218" height="1" />
        <rect x="92" y="82" width="218" height="1" />
        <rect x="92" y="83" width="218" height="1" />
        <rect x="92" y="84" width="218" height="1" />
        <rect x="92" y="85" width="218" height="1" />
        <rect x="92" y="86" width="218" height="1" />
        <rect x="92" y="87" width="218" height="1" />
        <rect x="92" y="88" width="218" height="1" />
        <rect x="92" y="89" width="218" height="1" />
        <rect x="92" y="90" width="218" height="1" />
        <rect x="92" y="91" width="218" height="1" />
        <rect x="92" y="92" width="218" height="1" />
        <rect x="92" y="93" width="218" height="1" />
        <rect x="92" y="94" width="218" height="1" />
        <rect x="92" y="95" width="218" height="1" />
        <rect x="92" y="96" width="218" height="1" />
        <rect x="92" y="97" width="218" height="1" />
        <rect x="92" y="98" width="218" height="1" />
        <rect x="92" y="99" width="218" height="1" />
        <rect x="92" y="100" width="218" height="1" />
        <rect x="92" y="101" width="218" height="1" />
        <rect x="92" y="102" width="218" height="1" />
        <rect x="92" y="103" width="218" height="1" />
        <rect x="92" y="104" width="218" height="1" />
        <rect x="92" y="105" width="218" height="1" />
        <rect x="92" y="106" width="218" height="1" />
        <rect x="92" y="107" width="218" height="1" />
        <rect x="92" y="108" width="218" height="1" />
        <rect x="92" y="109" width="218" height="1" />
        <rect x="92" y="110" width="218" height="1" />
        <rect x="92" y="111" width="218" height="1" />
        <rect x="92" y="112" width="218" height="1" />
        <rect x="92" y="113" width="218" height="1" />
        <rect x="92" y="114" width="218" height="1" />
        <rect x="92" y="115" width="218" height="1" />
        <rect x="92" y="116" width="218" height="1" />
        <rect x="92" y="117" width="218" height="1" />
        <rect x="92" y="118" width="218" height="1" />
        <rect x="92" y="119" width="218" height="1" />
        <rect x="92" y="120" width="218" height="1" />
        <rect x="92" y="121" width="218" height="1" />
        <rect x="92" y="122" width="218" height="1" />
        <rect x="92" y="123" width="218" height="1" />
        <rect x="92" y="124" width="218" height="1" />
        <rect x="92" y="125" width="218" height="1" />
        <rect x="92" y="126" width="218" height="1" />
        <rect x="92" y="127" width="218" height="1" />
        <rect x="92" y="128" width="218" height="1" />
        <rect x="92" y="129" width="218" height="1" />
        <rect x="92" y="130" width="218" height="1" />
        <rect x="92" y="131" width="218" height="1" />
        <rect x="92" y="132" width="218" height="1" />
        <rect x="92" y="133" width="218" height="1" />
        <rect x="92" y="134" width="218" height="1" />
        <rect x="92" y="135" width="218" height="1" />
        <rect x="92" y="136" width="218" height="1" />
        <rect x="92" y="137" width="218" height="1" />
        <rect x="92" y="138" width="218" height="1" />
        <rect x="92" y="139" width="218" height="1" />
        <rect x="92" y="140" width="218" height="1" />
        <rect x="92" y="141" width="218" height="1" />
        <rect x="92" y="142" width="218" height="1" />
        <rect x="92" y="143" width="218" height="1" />
        <rect x="92" y="144" width="218" height="1" />
        <rect x="92" y="145" width="218" height="1" />
        <rect x="92" y="146" width="218" height="1" />
        <rect x="92" y="147" width="218" height="1" />
        <rect x="92" y="148" width="218" height="1" />
        <rect x="92" y="149" width="218" height="1" />
        <rect x="92" y="150" width="218" height="1" />
        <rect x="92" y="151" width="218" height="1" />
        <rect x="92" y="152" width="218" height="1" />
        <rect x="92" y="153" width="218" height="1" />
        <rect x="90" y="154" width="1" height="1" />
        <rect x="92" y="154" width="218" height="1" />
        <rect x="90" y="155" width="1" height="1" />
        <rect x="92" y="155" width="218" height="1" />
        <rect x="91" y="156" width="219" height="1" />
        <rect x="90" y="157" width="220" height="1" />
        <rect x="92" y="158" width="216" height="1" />
        <rect x="92" y="159" width="216" height="1" />
        <rect x="118" y="160" width="164" height="1" />
        <rect x="118" y="161" width="164" height="1" />
        <rect x="118" y="162" width="164" height="1" />
        <rect x="118" y="163" width="164" height="1" />
        <rect x="118" y="164" width="164" height="1" />
        <rect x="118" y="165" width="164" height="1" />
        <rect x="118" y="166" width="164" height="1" />
        <rect x="118" y="167" width="164" height="1" />
        <rect x="118" y="168" width="164" height="1" />
        <rect x="118" y="169" width="164" height="1" />
        <rect x="118" y="170" width="164" height="1" />
        <rect x="118" y="171" width="164" height="1" />
        <rect x="118" y="172" width="164" height="1" />
        <rect x="118" y="173" width="164" height="1" />
        <rect x="118" y="174" width="164" height="1" />
        <rect x="118" y="175" width="164" height="1" />
        <rect x="118" y="176" width="164" height="1" />
        <rect x="118" y="177" width="164" height="1" />
        <rect x="118" y="178" width="164" height="1" />
        <rect x="118" y="179" width="164" height="1" />
        <rect x="118" y="180" width="164" height="1" />
        <rect x="118" y="181" width="164" height="1" />
        <rect x="118" y="182" width="164" height="1" />
        <rect x="118" y="183" width="164" height="1" />
        <rect x="118" y="184" width="164" height="1" />
        <rect x="118" y="185" width="164" height="1" />
        <rect x="144" y="186" width="112" height="1" />
        <rect x="144" y="187" width="112" height="1" />
        <rect x="144" y="188" width="112" height="1" />
        <rect x="144" y="189" width="112" height="1" />
        <rect x="144" y="190" width="112" height="1" />
        <rect x="144" y="191" width="112" height="1" />
        <rect x="144" y="192" width="112" height="1" />
        <rect x="144" y="193" width="112" height="1" />
        <rect x="144" y="194" width="112" height="1" />
        <rect x="144" y="195" width="112" height="1" />
        <rect x="144" y="196" width="112" height="1" />
        <rect x="144" y="197" width="112" height="1" />
        <rect x="144" y="198" width="112" height="1" />
        <rect x="144" y="199" width="112" height="1" />
        <rect x="144" y="200" width="112" height="1" />
        <rect x="144" y="201" width="112" height="1" />
        <rect x="144" y="202" width="112" height="1" />
        <rect x="144" y="203" width="112" height="1" />
        <rect x="144" y="204" width="112" height="1" />
        <rect x="144" y="205" width="112" height="1" />
        <rect x="144" y="206" width="112" height="1" />
        <rect x="144" y="207" width="112" height="1" />
        <rect x="144" y="208" width="112" height="1" />
        <rect x="144" y="209" width="112" height="1" />
        <rect x="144" y="210" width="112" height="1" />
        <rect x="144" y="211" width="112" height="1" />
        <rect x="104" y="236" width="190" height="1" />
        <rect x="104" y="237" width="190" height="1" />
        <rect x="104" y="238" width="190" height="1" />
        <rect x="104" y="239" width="190" height="1" />
        <rect x="106" y="240" width="188" height="1" />
        <rect x="106" y="241" width="188" height="1" />
        <rect x="106" y="242" width="188" height="1" />
        <rect x="106" y="243" width="188" height="1" />
        <rect x="106" y="244" width="188" height="1" />
        <rect x="106" y="245" width="188" height="1" />
        <rect x="106" y="246" width="188" height="1" />
        <rect x="106" y="247" width="188" height="1" />
        <rect x="106" y="248" width="188" height="1" />
        <rect x="106" y="249" width="188" height="1" />
        <rect x="106" y="250" width="188" height="1" />
        <rect x="106" y="251" width="188" height="1" />
        <rect x="106" y="252" width="188" height="1" />
        <rect x="106" y="253" width="188" height="1" />
        <rect x="106" y="254" width="188" height="1" />
        <rect x="106" y="255" width="188" height="1" />
        <rect x="106" y="256" width="188" height="1" />
        <rect x="106" y="257" width="188" height="1" />
        <rect x="60" y="258" width="236" height="1" />
        <rect x="321" y="258" width="19" height="1" />
        <rect x="60" y="259" width="236" height="1" />
        <rect x="320" y="259" width="2" height="1" />
        <rect x="323" y="259" width="17" height="1" />
        <rect x="58" y="260" width="284" height="1" />
        <rect x="58" y="261" width="284" height="1" />
        <rect x="58" y="262" width="284" height="1" />
        <rect x="58" y="263" width="284" height="1" />
        <rect x="58" y="264" width="284" height="1" />
        <rect x="58" y="265" width="284" height="1" />
        <rect x="58" y="266" width="284" height="1" />
        <rect x="58" y="267" width="284" height="1" />
        <rect x="58" y="268" width="284" height="1" />
        <rect x="58" y="269" width="284" height="1" />
        <rect x="58" y="270" width="284" height="1" />
        <rect x="58" y="271" width="284" height="1" />
        <rect x="58" y="272" width="284" height="1" />
        <rect x="58" y="273" width="284" height="1" />
        <rect x="58" y="274" width="284" height="1" />
        <rect x="58" y="275" width="284" height="1" />
        <rect x="58" y="276" width="284" height="1" />
        <rect x="58" y="277" width="284" height="1" />
        <rect x="58" y="278" width="284" height="1" />
        <rect x="58" y="279" width="284" height="1" />
        <rect x="58" y="280" width="284" height="1" />
        <rect x="58" y="281" width="284" height="1" />
        <rect x="58" y="282" width="284" height="1" />
        <rect x="58" y="283" width="284" height="1" />
        <rect x="58" y="284" width="284" height="1" />
        <rect x="58" y="285" width="284" height="1" />
        <rect x="28" y="286" width="344" height="1" />
        <rect x="28" y="287" width="344" height="1" />
        <rect x="28" y="288" width="344" height="1" />
        <rect x="28" y="289" width="344" height="1" />
        <rect x="28" y="290" width="344" height="1" />
        <rect x="28" y="291" width="344" height="1" />
        <rect x="28" y="292" width="344" height="1" />
        <rect x="28" y="293" width="344" height="1" />
        <rect x="28" y="294" width="344" height="1" />
        <rect x="28" y="295" width="344" height="1" />
        <rect x="28" y="296" width="344" height="1" />
        <rect x="28" y="297" width="344" height="1" />
        <rect x="28" y="298" width="344" height="1" />
        <rect x="28" y="299" width="344" height="1" />
        <rect x="28" y="300" width="344" height="1" />
        <rect x="28" y="301" width="344" height="1" />
        <rect x="28" y="302" width="344" height="1" />
        <rect x="28" y="303" width="344" height="1" />
        <rect x="28" y="304" width="344" height="1" />
        <rect x="28" y="305" width="344" height="1" />
        <rect x="28" y="306" width="344" height="1" />
        <rect x="28" y="307" width="344" height="1" />
        <rect x="28" y="308" width="344" height="1" />
        <rect x="28" y="309" width="344" height="1" />
        <rect x="28" y="310" width="344" height="1" />
        <rect x="28" y="311" width="344" height="1" />
        <rect x="28" y="312" width="344" height="1" />
        <rect x="28" y="313" width="344" height="1" />
        <rect x="28" y="314" width="344" height="1" />
        <rect x="28" y="315" width="344" height="1" />
        <rect x="28" y="316" width="344" height="1" />
        <rect x="28" y="317" width="344" height="1" />
        <rect x="28" y="318" width="344" height="1" />
        <rect x="28" y="319" width="344" height="1" />
        <rect x="28" y="320" width="344" height="1" />
        <rect x="28" y="321" width="344" height="1" />
        <rect x="0" y="322" width="400" height="1" />
        <rect x="0" y="323" width="400" height="1" />
        <rect x="0" y="324" width="400" height="1" />
        <rect x="0" y="325" width="400" height="1" />
        <rect x="0" y="326" width="400" height="1" />
        <rect x="0" y="327" width="400" height="1" />
        <rect x="0" y="328" width="400" height="1" />
        <rect x="0" y="329" width="400" height="1" />
        <rect x="0" y="330" width="400" height="1" />
        <rect x="0" y="331" width="400" height="1" />
        <rect x="0" y="332" width="400" height="1" />
        <rect x="0" y="333" width="400" height="1" />
        <rect x="0" y="334" width="400" height="1" />
        <rect x="0" y="335" width="400" height="1" />
        <rect x="0" y="336" width="400" height="1" />
        <rect x="0" y="337" width="400" height="1" />
        <rect x="0" y="338" width="400" height="1" />
        <rect x="0" y="339" width="400" height="1" />
        <rect x="0" y="340" width="400" height="1" />
        <rect x="0" y="341" width="400" height="1" />
        <rect x="0" y="342" width="400" height="1" />
        <rect x="0" y="343" width="400" height="1" />
        <rect x="0" y="344" width="400" height="1" />
        <rect x="0" y="345" width="400" height="1" />
        <rect x="0" y="346" width="400" height="1" />
        <rect x="0" y="347" width="400" height="1" />
        <rect x="0" y="348" width="400" height="1" />
        <rect x="0" y="349" width="400" height="1" />
        <rect x="0" y="350" width="400" height="1" />
        <rect x="0" y="351" width="400" height="1" />
        <rect x="0" y="352" width="400" height="1" />
        <rect x="0" y="353" width="400" height="1" />
        <rect x="0" y="354" width="400" height="1" />
        <rect x="0" y="355" width="400" height="1" />
        <rect x="0" y="356" width="400" height="1" />
        <rect x="0" y="357" width="400" height="1" />
        <rect x="0" y="358" width="400" height="1" />
        <rect x="0" y="359" width="400" height="1" />
        <rect x="0" y="360" width="400" height="1" />
        <rect x="0" y="361" width="400" height="1" />
        <rect x="0" y="362" width="400" height="1" />
        <rect x="0" y="363" width="400" height="1" />
        <rect x="0" y="364" width="400" height="1" />
        <rect x="0" y="365" width="400" height="1" />
        <rect x="0" y="366" width="400" height="1" />
        <rect x="0" y="367" width="400" height="1" />
        <rect x="0" y="368" width="400" height="1" />
        <rect x="0" y="369" width="400" height="1" />
        <rect x="0" y="370" width="400" height="1" />
        <rect x="0" y="371" width="400" height="1" />
        <rect x="0" y="372" width="400" height="1" />
        <rect x="0" y="373" width="400" height="1" />
        <rect x="0" y="374" width="400" height="1" />
        <rect x="0" y="375" width="400" height="1" />
        <rect x="0" y="376" width="400" height="1" />
        <rect x="0" y="377" width="400" height="1" />
        <rect x="0" y="378" width="400" height="1" />
        <rect x="0" y="379" width="400" height="1" />
        <rect x="0" y="380" width="400" height="1" />
        <rect x="0" y="381" width="400" height="1" />
        <rect x="0" y="382" width="400" height="1" />
        <rect x="0" y="383" width="400" height="1" />
        <rect x="0" y="384" width="400" height="1" />
        <rect x="0" y="385" width="400" height="1" />
        <rect x="0" y="386" width="400" height="1" />
        <rect x="0" y="387" width="400" height="1" />
        <rect x="0" y="388" width="400" height="1" />
        <rect x="0" y="389" width="400" height="1" />
        <rect x="0" y="390" width="400" height="1" />
        <rect x="0" y="391" width="400" height="1" />
        <rect x="0" y="392" width="400" height="1" />
        <rect x="0" y="393" width="400" height="1" />
        <rect x="0" y="394" width="400" height="1" />
        <rect x="0" y="395" width="400" height="1" />
        <rect x="0" y="396" width="400" height="1" />
        <rect x="0" y="397" width="400" height="1" />
    </g>
</svg>