<svg xmlns="http://www.w3.org/2000/svg" viewBox="0 0 534 390" width="534" height="390">
<g fill="black">
<rect x="18" y="0" width="190" height="1"/><rect x="18" y="1" width="190" height="1"/><rect x="18" y="2" width="190" height="1"/><rect x="18" y="3" width="190" height="1"/><rect x="18" y="4" width="190" height="1"/><rect x="18" y="5" width="190" height="1"/><rect x="18" y="6" width="190" height="1"/><rect x="18" y="7" width="190" height="1"/><rect x="18" y="8" width="190" height="1"/><rect x="18" y="9" width="190" height="1"/><rect x="18" y="10" width="190" height="1"/><rect x="18" y="11" width="190" height="1"/><rect x="18" y="12" width="190" height="1"/><rect x="18" y="13" width="190" height="1"/><rect x="18" y="14" width="202" height="1"/><rect x="18" y="15" width="202" height="1"/><rect x="0" y="16" width="222" height="1"/><rect x="0" y="17" width="222" height="1"/><rect x="2" y="18" width="220" height="1"/><rect x="0" y="19" width="1" height="1"/><rect x="2" y="19" width="220" height="1"/><rect x="0" y="20" width="222" height="1"/><rect x="0" y="21" width="222" height="1"/><rect x="0" y="22" width="222" height="1"/><rect x="0" y="23" width="222" height="1"/><rect x="0" y="24" width="230" height="1"/><rect x="0" y="25" width="230" height="1"/><rect x="0" y="26" width="230" height="1"/><rect x="0" y="27" width="230" height="1"/><rect x="0" y="28" width="32" height="1"/><rect x="194" y="28" width="36" height="1"/><rect x="0" y="29" width="32" height="1"/><rect x="194" y="29" width="36" height="1"/><rect x="0" y="30" width="32" height="1"/><rect x="194" y="30" width="36" height="1"/><rect x="0" y="31" width="32" height="1"/><rect x="194" y="31" width="36" height="1"/><rect x="0" y="32" width="32" height="1"/><rect x="194" y="32" width="44" height="1"/><rect x="0" y="33" width="32" height="1"/><rect x="194" y="33" width="44" height="1"/><rect x="0" y="34" width="32" height="1"/><rect x="194" y="34" width="44" height="1"/><rect x="0" y="35" width="32" height="1"/><rect x="194" y="35" width="44" height="1"/><rect x="0" y="36" width="32" height="1"/><rect x="194" y="36" width="48" height="1"/><rect x="0" y="37" width="32" height="1"/><rect x="194" y="37" width="48" height="1"/><rect x="0" y="38" width="32" height="1"/><rect x="202" y="38" width="40" height="1"/><rect x="0" y="39" width="32" height="1"/><rect x="202" y="39" width="40" height="1"/><rect x="0" y="40" width="32" height="1"/><rect x="202" y="40" width="40" height="1"/><rect x="0" y="41" width="32" height="1"/><rect x="202" y="41" width="40" height="1"/><rect x="0" y="42" width="32" height="1"/><rect x="202" y="42" width="298" height="1"/><rect x="0" y="43" width="32" height="1"/><rect x="202" y="43" width="298" height="1"/><rect x="0" y="44" width="32" height="1"/><rect x="210" y="44" width="292" height="1"/><rect x="0" y="45" width="32" height="1"/><rect x="210" y="45" width="292" height="1"/><rect x="0" y="46" width="32" height="1"/><rect x="210" y="46" width="292" height="1"/><rect x="0" y="47" width="32" height="1"/><rect x="210" y="47" width="292" height="1"/><rect x="0" y="48" width="32" height="1"/><rect x="210" y="48" width="292" height="1"/><rect x="0" y="49" width="32" height="1"/><rect x="210" y="49" width="292" height="1"/><rect x="0" y="50" width="32" height="1"/><rect x="210" y="50" width="292" height="1"/><rect x="0" y="51" width="32" height="1"/><rect x="210" y="51" width="292" height="1"/><rect x="0" y="52" width="32" height="1"/><rect x="210" y="52" width="292" height="1"/><rect x="0" y="53" width="32" height="1"/><rect x="210" y="53" width="292" height="1"/><rect x="0" y="54" width="32" height="1"/><rect x="212" y="54" width="290" height="1"/><rect x="0" y="55" width="32" height="1"/><rect x="212" y="55" width="290" height="1"/><rect x="0" y="56" width="32" height="1"/><rect x="224" y="56" width="294" height="1"/><rect x="0" y="57" width="32" height="1"/><rect x="224" y="57" width="294" height="1"/><rect x="0" y="58" width="32" height="1"/><rect x="224" y="58" width="294" height="1"/><rect x="0" y="59" width="32" height="1"/><rect x="224" y="59" width="294" height="1"/><rect x="0" y="60" width="32" height="1"/><rect x="224" y="60" width="294" height="1"/><rect x="0" y="61" width="32" height="1"/><rect x="224" y="61" width="294" height="1"/><rect x="0" y="62" width="32" height="1"/><rect x="224" y="62" width="294" height="1"/><rect x="0" y="63" width="32" height="1"/><rect x="224" y="63" width="294" height="1"/><rect x="0" y="64" width="32" height="1"/><rect x="224" y="64" width="294" height="1"/><rect x="0" y="65" width="32" height="1"/><rect x="224" y="65" width="294" height="1"/><rect x="0" y="66" width="32" height="1"/><rect x="224" y="66" width="294" height="1"/><rect x="0" y="67" width="32" height="1"/><rect x="224" y="67" width="294" height="1"/><rect x="0" y="68" width="32" height="1"/><rect x="224" y="68" width="294" height="1"/><rect x="0" y="69" width="32" height="1"/><rect x="224" y="69" width="294" height="1"/><rect x="0" y="70" width="1" height="1"/><rect x="2" y="70" width="30" height="1"/><rect x="486" y="70" width="32" height="1"/><rect x="0" y="71" width="32" height="1"/><rect x="486" y="71" width="32" height="1"/><rect x="0" y="72" width="32" height="1"/><rect x="486" y="72" width="32" height="1"/><rect x="2" y="73" width="30" height="1"/><rect x="486" y="73" width="32" height="1"/><rect x="2" y="74" width="30" height="1"/><rect x="486" y="74" width="32" height="1"/><rect x="2" y="75" width="30" height="1"/><rect x="486" y="75" width="32" height="1"/><rect x="2" y="76" width="30" height="1"/><rect x="486" y="76" width="32" height="1"/><rect x="2" y="77" width="30" height="1"/><rect x="486" y="77" width="32" height="1"/><rect x="2" y="78" width="30" height="1"/><rect x="486" y="78" width="32" height="1"/><rect x="2" y="79" width="30" height="1"/><rect x="486" y="79" width="32" height="1"/><rect x="2" y="80" width="30" height="1"/><rect x="486" y="80" width="46" height="1"/><rect x="2" y="81" width="30" height="1"/><rect x="486" y="81" width="46" height="1"/><rect x="2" y="82" width="30" height="1"/><rect x="486" y="82" width="48" height="1"/><rect x="2" y="83" width="30" height="1"/><rect x="486" y="83" width="48" height="1"/><rect x="2" y="84" width="30" height="1"/><rect x="486" y="84" width="48" height="1"/><rect x="2" y="85" width="30" height="1"/><rect x="486" y="85" width="48" height="1"/><rect x="2" y="86" width="532" height="1"/><rect x="2" y="87" width="532" height="1"/><rect x="2" y="88" width="532" height="1"/><rect x="2" y="89" width="532" height="1"/><rect x="2" y="90" width="532" height="1"/><rect x="2" y="91" width="532" height="1"/><rect x="2" y="92" width="532" height="1"/><rect x="2" y="93" width="532" height="1"/><rect x="2" y="94" width="532" height="1"/><rect x="2" y="95" width="532" height="1"/><rect x="2" y="96" width="532" height="1"/><rect x="2" y="97" width="532" height="1"/><rect x="2" y="98" width="532" height="1"/><rect x="2" y="99" width="532" height="1"/><rect x="0" y="100" width="1" height="1"/><rect x="2" y="100" width="532" height="1"/><rect x="0" y="101" width="534" height="1"/><rect x="1" y="102" width="533" height="1"/><rect x="0" y="103" width="534" height="1"/><rect x="0" y="104" width="534" height="1"/><rect x="0" y="105" width="534" height="1"/><rect x="0" y="106" width="534" height="1"/><rect x="0" y="107" width="534" height="1"/><rect x="0" y="108" width="534" height="1"/><rect x="0" y="109" width="534" height="1"/><rect x="0" y="110" width="534" height="1"/><rect x="0" y="111" width="534" height="1"/><rect x="0" y="112" width="32" height="1"/><rect x="502" y="112" width="32" height="1"/><rect x="0" y="113" width="32" height="1"/><rect x="502" y="113" width="32" height="1"/><rect x="0" y="114" width="32" height="1"/><rect x="502" y="114" width="32" height="1"/><rect x="0" y="115" width="32" height="1"/><rect x="502" y="115" width="32" height="1"/><rect x="0" y="116" width="32" height="1"/><rect x="502" y="116" width="32" height="1"/><rect x="0" y="117" width="32" height="1"/><rect x="502" y="117" width="32" height="1"/><rect x="0" y="118" width="32" height="1"/><rect x="502" y="118" width="32" height="1"/><rect x="0" y="119" width="32" height="1"/><rect x="502" y="119" width="32" height="1"/><rect x="0" y="120" width="32" height="1"/><rect x="502" y="120" width="32" height="1"/><rect x="0" y="121" width="32" height="1"/><rect x="502" y="121" width="32" height="1"/><rect x="0" y="122" width="32" height="1"/><rect x="502" y="122" width="32" height="1"/><rect x="0" y="123" width="32" height="1"/><rect x="502" y="123" width="32" height="1"/><rect x="0" y="124" width="32" height="1"/><rect x="502" y="124" width="32" height="1"/><rect x="0" y="125" width="32" height="1"/><rect x="502" y="125" width="32" height="1"/><rect x="0" y="126" width="32" height="1"/><rect x="502" y="126" width="32" height="1"/><rect x="0" y="127" width="32" height="1"/><rect x="502" y="127" width="32" height="1"/><rect x="0" y="128" width="32" height="1"/><rect x="502" y="128" width="32" height="1"/><rect x="0" y="129" width="32" height="1"/><rect x="502" y="129" width="32" height="1"/><rect x="0" y="130" width="32" height="1"/><rect x="502" y="130" width="32" height="1"/><rect x="0" y="131" width="32" height="1"/><rect x="502" y="131" width="32" height="1"/><rect x="0" y="132" width="32" height="1"/><rect x="502" y="132" width="32" height="1"/><rect x="0" y="133" width="32" height="1"/><rect x="502" y="133" width="32" height="1"/><rect x="0" y="134" width="32" height="1"/><rect x="502" y="134" width="32" height="1"/><rect x="0" y="135" width="32" height="1"/><rect x="502" y="135" width="32" height="1"/><rect x="0" y="136" width="32" height="1"/><rect x="502" y="136" width="32" height="1"/><rect x="0" y="137" width="32" height="1"/><rect x="502" y="137" width="32" height="1"/><rect x="0" y="138" width="32" height="1"/><rect x="502" y="138" width="32" height="1"/><rect x="0" y="139" width="32" height="1"/><rect x="502" y="139" width="32" height="1"/><rect x="1" y="140" width="31" height="1"/><rect x="502" y="140" width="32" height="1"/><rect x="2" y="141" width="30" height="1"/><rect x="502" y="141" width="32" height="1"/><rect x="0" y="142" width="1" height="1"/><rect x="2" y="142" width="30" height="1"/><rect x="502" y="142" width="32" height="1"/><rect x="0" y="143" width="1" height="1"/><rect x="2" y="143" width="30" height="1"/><rect x="502" y="143" width="32" height="1"/><rect x="0" y="144" width="32" height="1"/><rect x="502" y="144" width="32" height="1"/><rect x="0" y="145" width="32" height="1"/><rect x="502" y="145" width="32" height="1"/><rect x="0" y="146" width="1" height="1"/><rect x="2" y="146" width="30" height="1"/><rect x="502" y="146" width="32" height="1"/><rect x="0" y="147" width="32" height="1"/><rect x="502" y="147" width="32" height="1"/><rect x="0" y="148" width="32" height="1"/><rect x="502" y="148" width="32" height="1"/><rect x="0" y="149" width="32" height="1"/><rect x="502" y="149" width="32" height="1"/><rect x="0" y="150" width="32" height="1"/><rect x="502" y="150" width="32" height="1"/><rect x="0" y="151" width="32" height="1"/><rect x="502" y="151" width="32" height="1"/><rect x="0" y="152" width="32" height="1"/><rect x="502" y="152" width="32" height="1"/><rect x="0" y="153" width="32" height="1"/><rect x="502" y="153" width="32" height="1"/><rect x="0" y="154" width="32" height="1"/><rect x="502" y="154" width="32" height="1"/><rect x="0" y="155" width="32" height="1"/><rect x="502" y="155" width="32" height="1"/><rect x="0" y="156" width="32" height="1"/><rect x="502" y="156" width="32" height="1"/><rect x="0" y="157" width="32" height="1"/><rect x="502" y="157" width="32" height="1"/><rect x="0" y="158" width="32" height="1"/><rect x="502" y="158" width="32" height="1"/><rect x="0" y="159" width="32" height="1"/><rect x="502" y="159" width="32" height="1"/><rect x="0" y="160" width="32" height="1"/><rect x="502" y="160" width="32" height="1"/><rect x="0" y="161" width="32" height="1"/><rect x="502" y="161" width="32" height="1"/><rect x="0" y="162" width="32" height="1"/><rect x="502" y="162" width="32" height="1"/><rect x="0" y="163" width="32" height="1"/><rect x="502" y="163" width="32" height="1"/><rect x="0" y="164" width="32" height="1"/><rect x="502" y="164" width="32" height="1"/><rect x="0" y="165" width="32" height="1"/><rect x="502" y="165" width="32" height="1"/><rect x="0" y="166" width="32" height="1"/><rect x="502" y="166" width="32" height="1"/><rect x="0" y="167" width="32" height="1"/><rect x="502" y="167" width="32" height="1"/><rect x="0" y="168" width="32" height="1"/><rect x="502" y="168" width="32" height="1"/><rect x="0" y="169" width="32" height="1"/><rect x="502" y="169" width="32" height="1"/><rect x="0" y="170" width="32" height="1"/><rect x="502" y="170" width="32" height="1"/><rect x="0" y="171" width="32" height="1"/><rect x="502" y="171" width="32" height="1"/><rect x="0" y="172" width="32" height="1"/><rect x="502" y="172" width="32" height="1"/><rect x="0" y="173" width="32" height="1"/><rect x="502" y="173" width="32" height="1"/><rect x="0" y="174" width="32" height="1"/><rect x="502" y="174" width="32" height="1"/><rect x="0" y="175" width="1" height="1"/><rect x="2" y="175" width="30" height="1"/><rect x="502" y="175" width="32" height="1"/><rect x="2" y="176" width="30" height="1"/><rect x="502" y="176" width="32" height="1"/><rect x="2" y="177" width="30" height="1"/><rect x="502" y="177" width="32" height="1"/><rect x="2" y="178" width="30" height="1"/><rect x="502" y="178" width="32" height="1"/><rect x="2" y="179" width="30" height="1"/><rect x="502" y="179" width="32" height="1"/><rect x="2" y="180" width="30" height="1"/><rect x="502" y="180" width="32" height="1"/><rect x="2" y="181" width="30" height="1"/><rect x="502" y="181" width="32" height="1"/><rect x="2" y="182" width="30" height="1"/><rect x="502" y="182" width="32" height="1"/><rect x="2" y="183" width="30" height="1"/><rect x="502" y="183" width="32" height="1"/><rect x="2" y="184" width="30" height="1"/><rect x="502" y="184" width="32" height="1"/><rect x="2" y="185" width="30" height="1"/><rect x="502" y="185" width="32" height="1"/><rect x="1" y="186" width="31" height="1"/><rect x="502" y="186" width="32" height="1"/><rect x="0" y="187" width="32" height="1"/><rect x="502" y="187" width="32" height="1"/><rect x="1" y="188" width="31" height="1"/><rect x="502" y="188" width="32" height="1"/><rect x="0" y="189" width="32" height="1"/><rect x="502" y="189" width="32" height="1"/><rect x="0" y="190" width="32" height="1"/><rect x="502" y="190" width="32" height="1"/><rect x="0" y="191" width="32" height="1"/><rect x="502" y="191" width="32" height="1"/><rect x="0" y="192" width="32" height="1"/><rect x="502" y="192" width="32" height="1"/><rect x="0" y="193" width="32" height="1"/><rect x="502" y="193" width="32" height="1"/><rect x="0" y="194" width="32" height="1"/><rect x="502" y="194" width="32" height="1"/><rect x="0" y="195" width="32" height="1"/><rect x="502" y="195" width="32" height="1"/><rect x="0" y="196" width="32" height="1"/><rect x="502" y="196" width="32" height="1"/><rect x="0" y="197" width="32" height="1"/><rect x="502" y="197" width="32" height="1"/><rect x="0" y="198" width="32" height="1"/><rect x="502" y="198" width="32" height="1"/><rect x="0" y="199" width="32" height="1"/><rect x="502" y="199" width="32" height="1"/><rect x="0" y="200" width="32" height="1"/><rect x="502" y="200" width="32" height="1"/><rect x="0" y="201" width="32" height="1"/><rect x="502" y="201" width="32" height="1"/><rect x="0" y="202" width="32" height="1"/><rect x="502" y="202" width="32" height="1"/><rect x="0" y="203" width="32" height="1"/><rect x="502" y="203" width="32" height="1"/><rect x="0" y="204" width="32" height="1"/><rect x="502" y="204" width="32" height="1"/><rect x="0" y="205" width="32" height="1"/><rect x="502" y="205" width="32" height="1"/><rect x="0" y="206" width="32" height="1"/><rect x="502" y="206" width="32" height="1"/><rect x="0" y="207" width="1" height="1"/><rect x="2" y="207" width="30" height="1"/><rect x="502" y="207" width="32" height="1"/><rect x="0" y="208" width="1" height="1"/><rect x="2" y="208" width="30" height="1"/><rect x="502" y="208" width="32" height="1"/><rect x="0" y="209" width="1" height="1"/><rect x="2" y="209" width="30" height="1"/><rect x="502" y="209" width="32" height="1"/><rect x="0" y="210" width="32" height="1"/><rect x="502" y="210" width="32" height="1"/><rect x="0" y="211" width="32" height="1"/><rect x="502" y="211" width="32" height="1"/><rect x="0" y="212" width="32" height="1"/><rect x="502" y="212" width="32" height="1"/><rect x="0" y="213" width="32" height="1"/><rect x="502" y="213" width="32" height="1"/><rect x="1" y="214" width="31" height="1"/><rect x="502" y="214" width="32" height="1"/><rect x="0" y="215" width="32" height="1"/><rect x="502" y="215" width="32" height="1"/><rect x="0" y="216" width="32" height="1"/><rect x="502" y="216" width="32" height="1"/><rect x="0" y="217" width="32" height="1"/><rect x="502" y="217" width="32" height="1"/><rect x="0" y="218" width="32" height="1"/><rect x="502" y="218" width="32" height="1"/><rect x="0" y="219" width="32" height="1"/><rect x="502" y="219" width="32" height="1"/><rect x="0" y="220" width="32" height="1"/><rect x="502" y="220" width="32" height="1"/><rect x="0" y="221" width="32" height="1"/><rect x="502" y="221" width="32" height="1"/><rect x="0" y="222" width="32" height="1"/><rect x="502" y="222" width="32" height="1"/><rect x="0" y="223" width="32" height="1"/><rect x="502" y="223" width="32" height="1"/><rect x="0" y="224" width="32" height="1"/><rect x="502" y="224" width="32" height="1"/><rect x="0" y="225" width="32" height="1"/><rect x="502" y="225" width="32" height="1"/><rect x="0" y="226" width="32" height="1"/><rect x="502" y="226" width="32" height="1"/><rect x="0" y="227" width="32" height="1"/><rect x="502" y="227" width="32" height="1"/><rect x="0" y="228" width="1" height="1"/><rect x="2" y="228" width="30" height="1"/><rect x="502" y="228" width="32" height="1"/><rect x="0" y="229" width="1" height="1"/><rect x="2" y="229" width="30" height="1"/><rect x="502" y="229" width="32" height="1"/><rect x="0" y="230" width="32" height="1"/><rect x="502" y="230" width="32" height="1"/><rect x="0" y="231" width="32" height="1"/><rect x="502" y="231" width="32" height="1"/><rect x="0" y="232" width="32" height="1"/><rect x="502" y="232" width="32" height="1"/><rect x="0" y="233" width="32" height="1"/><rect x="502" y="233" width="32" height="1"/><rect x="0" y="234" width="32" height="1"/><rect x="502" y="234" width="32" height="1"/><rect x="0" y="235" width="32" height="1"/><rect x="502" y="235" width="32" height="1"/><rect x="0" y="236" width="32" height="1"/><rect x="502" y="236" width="32" height="1"/><rect x="0" y="237" width="32" height="1"/><rect x="502" y="237" width="32" height="1"/><rect x="0" y="238" width="32" height="1"/><rect x="502" y="238" width="32" height="1"/><rect x="0" y="239" width="32" height="1"/><rect x="502" y="239" width="32" height="1"/><rect x="0" y="240" width="32" height="1"/><rect x="502" y="240" width="32" height="1"/><rect x="0" y="241" width="32" height="1"/><rect x="502" y="241" width="32" height="1"/><rect x="0" y="242" width="32" height="1"/><rect x="502" y="242" width="32" height="1"/><rect x="0" y="243" width="32" height="1"/><rect x="502" y="243" width="32" height="1"/><rect x="0" y="244" width="32" height="1"/><rect x="502" y="244" width="32" height="1"/><rect x="0" y="245" width="32" height="1"/><rect x="502" y="245" width="32" height="1"/><rect x="0" y="246" width="1" height="1"/><rect x="2" y="246" width="30" height="1"/><rect x="502" y="246" width="32" height="1"/><rect x="0" y="247" width="1" height="1"/><rect x="2" y="247" width="30" height="1"/><rect x="502" y="247" width="32" height="1"/><rect x="0" y="248" width="1" height="1"/><rect x="2" y="248" width="30" height="1"/><rect x="502" y="248" width="32" height="1"/><rect x="0" y="249" width="32" height="1"/><rect x="502" y="249" width="32" height="1"/><rect x="0" y="250" width="32" height="1"/><rect x="502" y="250" width="32" height="1"/><rect x="0" y="251" width="1" height="1"/><rect x="2" y="251" width="30" height="1"/><rect x="502" y="251" width="32" height="1"/><rect x="2" y="252" width="30" height="1"/><rect x="502" y="252" width="32" height="1"/><rect x="2" y="253" width="30" height="1"/><rect x="502" y="253" width="32" height="1"/><rect x="0" y="254" width="32" height="1"/><rect x="502" y="254" width="32" height="1"/><rect x="0" y="255" width="1" height="1"/><rect x="2" y="255" width="30" height="1"/><rect x="502" y="255" width="32" height="1"/><rect x="0" y="256" width="32" height="1"/><rect x="502" y="256" width="32" height="1"/><rect x="0" y="257" width="32" height="1"/><rect x="502" y="257" width="32" height="1"/><rect x="0" y="258" width="32" height="1"/><rect x="502" y="258" width="32" height="1"/><rect x="0" y="259" width="1" height="1"/><rect x="2" y="259" width="30" height="1"/><rect x="502" y="259" width="32" height="1"/><rect x="0" y="260" width="32" height="1"/><rect x="502" y="260" width="32" height="1"/><rect x="0" y="261" width="32" height="1"/><rect x="502" y="261" width="32" height="1"/><rect x="0" y="262" width="32" height="1"/><rect x="502" y="262" width="32" height="1"/><rect x="0" y="263" width="32" height="1"/><rect x="502" y="263" width="32" height="1"/><rect x="0" y="264" width="32" height="1"/><rect x="502" y="264" width="32" height="1"/><rect x="0" y="265" width="32" height="1"/><rect x="502" y="265" width="32" height="1"/><rect x="0" y="266" width="32" height="1"/><rect x="502" y="266" width="32" height="1"/><rect x="0" y="267" width="32" height="1"/><rect x="502" y="267" width="32" height="1"/><rect x="0" y="268" width="32" height="1"/><rect x="502" y="268" width="32" height="1"/><rect x="0" y="269" width="32" height="1"/><rect x="502" y="269" width="32" height="1"/><rect x="0" y="270" width="32" height="1"/><rect x="502" y="270" width="32" height="1"/><rect x="0" y="271" width="32" height="1"/><rect x="502" y="271" width="32" height="1"/><rect x="0" y="272" width="32" height="1"/><rect x="502" y="272" width="32" height="1"/><rect x="0" y="273" width="32" height="1"/><rect x="502" y="273" width="32" height="1"/><rect x="0" y="274" width="32" height="1"/><rect x="502" y="274" width="32" height="1"/><rect x="0" y="275" width="32" height="1"/><rect x="502" y="275" width="32" height="1"/><rect x="0" y="276" width="32" height="1"/><rect x="502" y="276" width="32" height="1"/><rect x="0" y="277" width="32" height="1"/><rect x="502" y="277" width="32" height="1"/><rect x="0" y="278" width="32" height="1"/><rect x="502" y="278" width="32" height="1"/><rect x="0" y="279" width="1" height="1"/><rect x="2" y="279" width="30" height="1"/><rect x="502" y="279" width="32" height="1"/><rect x="2" y="280" width="30" height="1"/><rect x="502" y="280" width="32" height="1"/><rect x="2" y="281" width="30" height="1"/><rect x="502" y="281" width="32" height="1"/><rect x="0" y="282" width="32" height="1"/><rect x="502" y="282" width="32" height="1"/><rect x="0" y="283" width="32" height="1"/><rect x="502" y="283" width="32" height="1"/><rect x="1" y="284" width="31" height="1"/><rect x="502" y="284" width="32" height="1"/><rect x="0" y="285" width="32" height="1"/><rect x="502" y="285" width="32" height="1"/><rect x="0" y="286" width="32" height="1"/><rect x="502" y="286" width="32" height="1"/><rect x="0" y="287" width="32" height="1"/><rect x="502" y="287" width="32" height="1"/><rect x="0" y="288" width="32" height="1"/><rect x="502" y="288" width="32" height="1"/><rect x="0" y="289" width="32" height="1"/><rect x="502" y="289" width="32" height="1"/><rect x="0" y="290" width="32" height="1"/><rect x="502" y="290" width="32" height="1"/><rect x="0" y="291" width="32" height="1"/><rect x="502" y="291" width="32" height="1"/><rect x="0" y="292" width="32" height="1"/><rect x="502" y="292" width="32" height="1"/><rect x="0" y="293" width="32" height="1"/><rect x="502" y="293" width="32" height="1"/><rect x="0" y="294" width="32" height="1"/><rect x="502" y="294" width="32" height="1"/><rect x="0" y="295" width="32" height="1"/><rect x="502" y="295" width="32" height="1"/><rect x="0" y="296" width="32" height="1"/><rect x="502" y="296" width="32" height="1"/><rect x="0" y="297" width="32" height="1"/><rect x="502" y="297" width="32" height="1"/><rect x="0" y="298" width="32" height="1"/><rect x="502" y="298" width="32" height="1"/><rect x="0" y="299" width="32" height="1"/><rect x="502" y="299" width="32" height="1"/><rect x="0" y="300" width="32" height="1"/><rect x="502" y="300" width="32" height="1"/><rect x="0" y="301" width="32" height="1"/><rect x="502" y="301" width="32" height="1"/><rect x="0" y="302" width="32" height="1"/><rect x="502" y="302" width="32" height="1"/><rect x="0" y="303" width="32" height="1"/><rect x="502" y="303" width="32" height="1"/><rect x="0" y="304" width="32" height="1"/><rect x="502" y="304" width="32" height="1"/><rect x="0" y="305" width="32" height="1"/><rect x="502" y="305" width="32" height="1"/><rect x="0" y="306" width="32" height="1"/><rect x="502" y="306" width="32" height="1"/><rect x="0" y="307" width="32" height="1"/><rect x="502" y="307" width="32" height="1"/><rect x="0" y="308" width="32" height="1"/><rect x="502" y="308" width="32" height="1"/><rect x="0" y="309" width="32" height="1"/><rect x="502" y="309" width="32" height="1"/><rect x="0" y="310" width="32" height="1"/><rect x="502" y="310" width="32" height="1"/><rect x="0" y="311" width="32" height="1"/><rect x="502" y="311" width="32" height="1"/><rect x="0" y="312" width="32" height="1"/><rect x="502" y="312" width="32" height="1"/><rect x="0" y="313" width="32" height="1"/><rect x="502" y="313" width="32" height="1"/><rect x="0" y="314" width="32" height="1"/><rect x="502" y="314" width="32" height="1"/><rect x="0" y="315" width="32" height="1"/><rect x="502" y="315" width="32" height="1"/><rect x="0" y="316" width="32" height="1"/><rect x="502" y="316" width="32" height="1"/><rect x="0" y="317" width="32" height="1"/><rect x="502" y="317" width="32" height="1"/><rect x="0" y="318" width="32" height="1"/><rect x="502" y="318" width="32" height="1"/><rect x="0" y="319" width="32" height="1"/><rect x="502" y="319" width="32" height="1"/><rect x="0" y="320" width="32" height="1"/><rect x="502" y="320" width="32" height="1"/><rect x="0" y="321" width="32" height="1"/><rect x="502" y="321" width="32" height="1"/><rect x="0" y="322" width="32" height="1"/><rect x="502" y="322" width="32" height="1"/><rect x="0" y="323" width="32" height="1"/><rect x="502" y="323" width="32" height="1"/><rect x="0" y="324" width="32" height="1"/><rect x="502" y="324" width="32" height="1"/><rect x="0" y="325" width="32" height="1"/><rect x="502" y="325" width="32" height="1"/><rect x="0" y="326" width="32" height="1"/><rect x="502" y="326" width="32" height="1"/><rect x="0" y="327" width="32" height="1"/><rect x="502" y="327" width="32" height="1"/><rect x="0" y="328" width="32" height="1"/><rect x="502" y="328" width="32" height="1"/><rect x="0" y="329" width="32" height="1"/><rect x="502" y="329" width="32" height="1"/><rect x="0" y="330" width="32" height="1"/><rect x="502" y="330" width="32" height="1"/><rect x="0" y="331" width="32" height="1"/><rect x="502" y="331" width="32" height="1"/><rect x="0" y="332" width="32" height="1"/><rect x="502" y="332" width="32" height="1"/><rect x="0" y="333" width="32" height="1"/><rect x="502" y="333" width="32" height="1"/><rect x="0" y="334" width="32" height="1"/><rect x="502" y="334" width="32" height="1"/><rect x="0" y="335" width="32" height="1"/><rect x="502" y="335" width="32" height="1"/><rect x="0" y="336" width="32" height="1"/><rect x="502" y="336" width="32" height="1"/><rect x="0" y="337" width="32" height="1"/><rect x="502" y="337" width="32" height="1"/><rect x="0" y="338" width="32" height="1"/><rect x="502" y="338" width="32" height="1"/><rect x="0" y="339" width="32" height="1"/><rect x="502" y="339" width="32" height="1"/><rect x="0" y="340" width="32" height="1"/><rect x="502" y="340" width="32" height="1"/><rect x="0" y="341" width="32" height="1"/><rect x="502" y="341" width="32" height="1"/><rect x="0" y="342" width="32" height="1"/><rect x="502" y="342" width="32" height="1"/><rect x="0" y="343" width="32" height="1"/><rect x="502" y="343" width="32" height="1"/><rect x="0" y="344" width="32" height="1"/><rect x="502" y="344" width="32" height="1"/><rect x="0" y="345" width="32" height="1"/><rect x="502" y="345" width="32" height="1"/><rect x="0" y="346" width="32" height="1"/><rect x="502" y="346" width="32" height="1"/><rect x="0" y="347" width="32" height="1"/><rect x="502" y="347" width="32" height="1"/><rect x="0" y="348" width="32" height="1"/><rect x="502" y="348" width="32" height="1"/><rect x="0" y="349" width="32" height="1"/><rect x="502" y="349" width="32" height="1"/><rect x="1" y="350" width="31" height="1"/><rect x="502" y="350" width="32" height="1"/><rect x="0" y="351" width="32" height="1"/><rect x="502" y="351" width="32" height="1"/><rect x="2" y="352" width="30" height="1"/><rect x="502" y="352" width="32" height="1"/><rect x="2" y="353" width="30" height="1"/><rect x="502" y="353" width="32" height="1"/><rect x="2" y="354" width="30" height="1"/><rect x="502" y="354" width="32" height="1"/><rect x="2" y="355" width="30" height="1"/><rect x="502" y="355" width="32" height="1"/><rect x="2" y="356" width="30" height="1"/><rect x="502" y="356" width="32" height="1"/><rect x="2" y="357" width="30" height="1"/><rect x="502" y="357" width="32" height="1"/><rect x="0" y="358" width="32" height="1"/><rect x="502" y="358" width="32" height="1"/><rect x="0" y="359" width="32" height="1"/><rect x="502" y="359" width="32" height="1"/><rect x="2" y="360" width="30" height="1"/><rect x="502" y="360" width="32" height="1"/><rect x="2" y="361" width="30" height="1"/><rect x="502" y="361" width="32" height="1"/><rect x="0" y="362" width="534" height="1"/><rect x="0" y="363" width="534" height="1"/><rect x="0" y="364" width="1" height="1"/><rect x="2" y="364" width="532" height="1"/><rect x="0" y="365" width="534" height="1"/><rect x="0" y="366" width="534" height="1"/><rect x="0" y="367" width="534" height="1"/><rect x="0" y="368" width="534" height="1"/><rect x="0" y="369" width="534" height="1"/><rect x="0" y="370" width="534" height="1"/><rect x="0" y="371" width="534" height="1"/><rect x="0" y="372" width="534" height="1"/><rect x="0" y="373" width="534" height="1"/><rect x="0" y="374" width="1" height="1"/><rect x="2" y="374" width="532" height="1"/><rect x="0" y="375" width="534" height="1"/><rect x="16" y="376" width="502" height="1"/><rect x="16" y="377" width="502" height="1"/><rect x="16" y="378" width="502" height="1"/><rect x="16" y="379" width="502" height="1"/><rect x="16" y="380" width="502" height="1"/><rect x="16" y="381" width="502" height="1"/><rect x="16" y="382" width="502" height="1"/><rect x="16" y="383" width="502" height="1"/><rect x="16" y="384" width="502" height="1"/><rect x="16" y="385" width="502" height="1"/><rect x="16" y="386" width="502" height="1"/><rect x="16" y="387" width="502" height="1"/><rect x="16" y="388" width="502" height="1"/><rect x="16" y="389" width="502" height="1"/>
</g>
</svg>